<svg xmlns="http://www.w3.org/2000/svg" viewBox="0 0 142 142"><defs><style>.cls-1{fill:none;stroke:#be9973;stroke-miterlimit:10;stroke-width:7px;}.cls-2{font-size:49px;}.cls-2,.cls-3{fill:#be9973;font-family:CircularStd-Book, Circular Std;}.cls-3{font-size:11px;}</style></defs><title>Asset 12</title><g id="Layer_2" data-name="Layer 2"><g id="Area_Logos" data-name="Area Logos"><circle class="cls-1" cx="71" cy="71" r="67.5"/><text id="Nordsjælland" class="cls-2" transform="translate(35.19 91.4)">KN</text><text class="cls-3" transform="translate(21.73 63.73) rotate(-78.79)">K</text><text class="cls-3" transform="matrix(0.34, -0.94, 0.94, 0.34, 22.88, 57.32)">O</text><text class="cls-3" transform="translate(25.74 49.28) rotate(-60.62)">N</text><text class="cls-3" transform="matrix(0.63, -0.78, 0.78, 0.63, 29.71, 42.19)">G</text><text class="cls-3" transform="translate(34.87 35.86) rotate(-42.93)">E</text><text class="cls-3" transform="matrix(0.82, -0.57, 0.57, 0.82, 39.31, 31.61)">N</text><text class="cls-3" transform="translate(46.03 27.02) rotate(-26.29)">S</text><text class="cls-3" transform="translate(51.77 24.28) rotate(-21.06)"> </text><text class="cls-3" transform="translate(54.12 23.19) rotate(-14.74)">N</text><text class="cls-3" transform="translate(61.93 21.09) rotate(-5.07)">O</text><text class="cls-3" transform="translate(70.46 20.39) rotate(3.58)">R</text><text class="cls-3" transform="translate(77.03 20.75) rotate(11.86)">D</text><text class="cls-3" transform="translate(84.48 22.34) rotate(19.96)">S</text><text class="cls-3" transform="matrix(0.89, 0.46, -0.46, 0.89, 90.5, 24.54)">J</text><text class="cls-3" transform="matrix(0.81, 0.59, -0.59, 0.81, 94.97, 26.5)">Æ</text><text class="cls-3" transform="translate(103.75 33.09) rotate(45.51)">L</text><text class="cls-3" transform="matrix(0.61, 0.79, -0.79, 0.61, 107.84, 37.24)">L</text><text class="cls-3" transform="matrix(0.5, 0.87, -0.87, 0.5, 111.57, 41.96)">A</text><text class="cls-3" transform="matrix(0.35, 0.94, -0.94, 0.35, 115.3, 48.37)">N</text><text class="cls-3" transform="translate(118.18 55.94) rotate(78.44)">D</text></g></g></svg>