<svg xmlns="http://www.w3.org/2000/svg" viewBox="0 0 174 173"><defs><style>.cls-1{fill:none;stroke:#be9973;stroke-miterlimit:10;stroke-width:7px;}.cls-2{font-size:67.63px;}.cls-2,.cls-3,.cls-4{fill:#be9973;font-family:CircularStd-Book, Circular Std;}.cls-3{font-size:17.21px;}.cls-4{font-size:19.67px;}</style></defs><title>Asset 14</title><g id="Layer_2" data-name="Layer 2"><g id="Area_Logos" data-name="Area Logos"><ellipse class="cls-1" cx="87" cy="86.5" rx="83.5" ry="83"/><text id="KN" class="cls-2" transform="translate(40.23 110.35) scale(1.01 1)">NS</text><text class="cls-3" transform="matrix(0.89, 0.52, -0.5, 0.87, 50.31, 137.41)">5</text><text class="cls-3" transform="translate(59.65 142.56) rotate(22.98) scale(1.03 1)"> </text><text class="cls-3" transform="translate(64.77 145) rotate(14.08) scale(1.03 1)">C</text><text class="cls-3" transform="matrix(1.03, 0.03, -0.03, 1, 79, 148.37)">A</text><text class="cls-3" transform="translate(92.69 148.59) rotate(-9.18) scale(1.03 1)">S</text><text class="cls-3" transform="translate(104.35 146.59) rotate(-19.56) scale(1.03 1)">T</text><text class="cls-3" transform="matrix(0.89, -0.52, 0.5, 0.86, 115.56, 142.47)">S</text><text class="cls-4" transform="translate(28.93 74.81) rotate(-70.29) scale(1.02 1)">N</text><text class="cls-4" transform="matrix(0.58, -0.84, 0.82, 0.57, 33.7, 61.06)">O</text><text class="cls-4" transform="translate(42.59 48.48) rotate(-41.86) scale(1.02 1)">R</text><text class="cls-4" transform="matrix(0.89, -0.5, 0.49, 0.87, 51.23, 40.5)">D</text><text class="cls-4" transform="translate(63.18 33.82) rotate(-17.36) scale(1.02 1)">S</text><text class="cls-4" transform="translate(74.2 30.39) rotate(-6.8) scale(1.02 1)">J</text><text class="cls-4" transform="translate(82.76 28.58) rotate(6.03) scale(1.02 1)">Æ</text><text class="cls-4" transform="translate(102.4 31.16) rotate(20.53) scale(1.02 1)">L</text><text class="cls-4" transform="matrix(0.88, 0.52, -0.51, 0.86, 112.2, 34.78)">L</text><text class="cls-4" transform="translate(121.55 40.11) rotate(42.62) scale(1.02 1)">A</text><text class="cls-4" transform="translate(131.44 48.98) rotate(56.37) scale(1.02 1)">N</text><text class="cls-4" transform="translate(139.55 61.09) rotate(70.65) scale(1.02 1)">D</text></g></g></svg>