<svg xmlns="http://www.w3.org/2000/svg" viewBox="0 0 695.38 906.34"><defs><style>.cls-1{fill:none;}</style></defs><title>Asset 8</title><g id="Layer_2" data-name="Layer 2"><g id="denmark"><path class="cls-1" d="M0,609V0H695.38V906.34H587.08c.24-1.58.81-3.2.66-4.74-.41-4-1-8-1.75-11.94-1.84-10.33-.72-19.86,6.67-28a23.65,23.65,0,0,0,3.26-5.8c1.2-2.53,2-5.25,3.35-7.71a71.69,71.69,0,0,1,5.65-9,44.66,44.66,0,0,1,6.9-7.5c2-1.68,3-3.35,2.71-5.9a23,23,0,0,0-4.79-11.62,23.14,23.14,0,0,1,3.06,1.7,10.8,10.8,0,0,0,14.7-3.06,43.25,43.25,0,0,0,3.6-6.67c2.8-6.2,7.71-9.19,14.32-8.83,5.08.27,10.13,1.32,15.19,2.09a7.88,7.88,0,0,1,2.47,1c2.7,1.47,8.8,0,10.45-2.62,2.28-3.6,2.06-7.58.55-11.17a22.51,22.51,0,0,0-12.77-12.33,31.86,31.86,0,0,0-6.93-1.67c-7.29-1.09-14.58-2-20.47-7.18-.7-.61-2.51-.55-3.52-.12-3.53,1.49-4.38,3.68-3.44,7.64a62.34,62.34,0,0,1,1.71,8.05c.29,2.91-1.88,4-4.67,3.28a9.32,9.32,0,0,0-5.65.37c-3.39,1.48-6.48,3.6-9.76,5.34-2.86,1.52-4,3.49-3.53,6.71.12.9.25,1.79.44,3.23l-2.6-1.84c-2.74-2-5.72-2.93-9-1.72a5.41,5.41,0,0,0-2.42,8.53c2.88,3.68,8.75,3.52,12.13-.46.54,1.89,1,3.67,1.74,6.17-5.11-1.28-9.54-2.26-13.86-3.58-1.14-.35-2-1.77-2.89-2.73-1.12-1.14-2-2.62-3.36-3.4a12.28,12.28,0,0,0-8.88-1.19c-.85.17-2.49-.16-2.65-.63-1.21-3.6-3.87-5.59-7-7.48-2-1.26-3.44-1.27-4.94.47-2,2.31-4.12,3.12-7,1.23a5.69,5.69,0,0,0-6.91.46c-2.53,1.9-5,3.93-7.26,5.76,2.4,2.84,4.8,5.27,6.71,8a12,12,0,0,1,2.15,9.77,72.05,72.05,0,0,1-6.47-5,20.65,20.65,0,0,0-3.23-2.58c-2.15-1.15-3.84-.38-4.46,2a31.26,31.26,0,0,0-.69,4.42c-.66,5.73-2.1,7.28-7.79,8.28-3.23.58-3.65,1-4.2,4.39a19,19,0,0,1-3.42-.85c-2.27-1-4.45-2.26-6.68-3.38a61.84,61.84,0,0,1-15.21-10.81c-1.77-1.7-2.69-4.31-3.88-6.58-1-1.8-1.57-3.78-2.62-5.52a19.48,19.48,0,0,0-3.16-3.71c-3.25-3.21-6.83-6.33-11.3-7.21a32.57,32.57,0,0,0-23.57,4.35,21.1,21.1,0,0,0-3.86,3.28,32.92,32.92,0,0,0-5.69,7.75,12.67,12.67,0,0,0-1.36,9.77c1.31,5.22,4.9,9.11,7.68,13.48a25.79,25.79,0,0,1,1.7,4.15c-1.59.5-3.16,1.11-4.79,1.45a3.54,3.54,0,0,1-2.36-.43c-3.55-2.28-7.89.56-8.79,4.7-1.51,7,.92,14.79,9.38,17.3a88.65,88.65,0,0,1,13,4.93c4.38,2.11,8.48,4.81,12.69,7.28a81.91,81.91,0,0,1,8.33,5.13c4.46,3.43,8.6,7.26,13,10.74,5.34,4.22,10.83,8.25,16.35,12.43.68-.51,1.34-1,2-1.5,4.87-4,9.72-8,14.6-12,4-3.23,8.6-3.94,13.6-3.65,4.8.28,8.93,2.59,13.41,3.78a104.73,104.73,0,0,0,12.23,2.2c1.41.2,3-.5,2.21-2.29-1.31-2.89.3-4.86,1.38-7.27.23.28.3.33.3.38,0,.67-.06,1.35,0,2,1.09,10.9,2.93,21.44,13.44,27.8H0V612.57a10.24,10.24,0,0,0,4.93,5.22c1.91.93,3.75,2,5.73,2.78,6.26,2.4,10.61,7.19,15.13,11.8,2.91,3,6,5.78,9.05,8.56a2.34,2.34,0,0,0,2.16.35c.51-.3.6-1.35.85-2.08.14-.41.08-1.06.35-1.24,1.6-1.05,1.29-2.55,1.08-4-.54-3.82-2.55-6.92-5-9.81a25.66,25.66,0,0,1-5.61-12.69c-.17-1.12.39-3.28,1-3.42,1.78-.44,2.3,1.39,2.94,2.71a.87.87,0,0,1,0,.22c1,4.72,3.7,8.3,7.39,11.33a8.78,8.78,0,0,1,3,4.21,13.61,13.61,0,0,0,6,8.77,139.39,139.39,0,0,0,12.3,6.57c2.61,1.27,5.53,1.91,8.05,3.31,3.16,1.76,6.12,3.92,7.44,7.62,4.31,12.09,5.3,24.56,4.3,37.26-.58,7.4-.64,14.75,1.31,22,1.18,4.38,2.38,8.78,3.18,13.23a19.21,19.21,0,0,1,0,7.48c-1.52,6.51-3.6,12.89-5.19,19.39a41.62,41.62,0,0,0-.81,17.74c1.53,8.23,2.6,16.47,1.77,24.9a15.87,15.87,0,0,0,1.2,7.18c.67,1.7,2.32,4,3.76,4.19a25.47,25.47,0,0,0,9.44-.94c5.89-1.61,11.74-3.73,17.9-2.39,4.08.89,8,2.63,12,3.93,8.94,2.93,17.63,6.72,27.05,8.1a73.16,73.16,0,0,1,8.32,1.61c2.71.73,3.33,2,3.05,4.86a8.86,8.86,0,0,0,.19,3.08c1.34,4.92,9.19,9.66,14.17,8.4,2.71-.68,5.25-2,7.94-2.8a62,62,0,0,1,8.68-2c2.75-.4,2.77-.2,2.9,2.68a21.69,21.69,0,0,0,.23,2.67c.46,2.53,1.3,3,3.46,1.58,3.1-2,6-4.42,9.13-6.31,3.41-2,6.85-4.16,11-4.52,3.24-.28,6.56-.37,9.29,1.54a26.11,26.11,0,0,0,10.41,4.24,4.4,4.4,0,0,0,4.93-2.26c2.38-4.08,3.95-8.23,1-12.78a3.12,3.12,0,0,1-.35-2.44c.71-1.83,4.35-2.69,6.15-1.84a16.63,16.63,0,0,0,5.14,1.7,6.25,6.25,0,0,1,5.4,3.3c3.37,6,12.24,7.62,18,3.92a37.36,37.36,0,0,1,9.52-3.91c2.11-.63,3.81-1.5,3.81-3.7a109.59,109.59,0,0,0-.73-11.73c-.46-4-2.11-8.08,1.18-11.71.21-.23.2-1.07.05-1.15-.38-.2-1.08-.33-1.34-.11-2.07,1.66-3.71.57-5.09-.87-3.9-4.07-7.77-8.17-11.47-12.42a85,85,0,0,1-4.93-7c-4,.46-7.16-1.66-14.89-10.23-1.16.14-2.27.65-3,.3-6.11-3.07-12.65-3-19.19-2.74-.67,0-1.47.82-1.93,1.45-.83,1.15-1.34,2.52-2.16,3.67-.69,1-1.73,1.65-2.45,2.6-1.57,2.06-1.14,3.59,1.21,4.58a20.48,20.48,0,0,0,2.32.8,3,3,0,0,1,2.32,3.16c0,1,0,2.06,0,3.7a38.74,38.74,0,0,1-5.27-3.78c-2.75-2.77-5.74-4.59-9.81-4.2-2.08.2-4.17.2-6.26.25-1.51,0-3,0-4.69,0,1.77-1.61,3.36-3.14,5-4.57,4.39-3.76,4.89-5.61,2.85-10.85,2.26-2.2,4.27-4.59,4.63-7.87.2-1.81.64-4.16-1.73-4.72s-2.93,1.88-3.45,3.55a51,51,0,0,0-1.12,6.2c-.78-1.16-1.34-2-1.92-2.85a2,2,0,0,1,.38-2.93c1.86-1.4,1.57-2.88.3-4.4s-1-2.82.68-3.86c2.87-1.83,5.7-3.74,8.66-5.42a2.72,2.72,0,0,1,2.37.64c2.11,2,4.91,2.32,7,.21a39.59,39.59,0,0,0,5.54-6.66c2.73-4.32,5.1-8.86,7.7-13.43,1.23-.06,2.72,0,4.19-.22a3.79,3.79,0,0,0,3.19-3.26c.38-1.71-2.13-5.37-4.11-6.23-2.22-1-3.58.27-4.91,1.87-1.64,2-2.69,2-4.77.47a28.35,28.35,0,0,1-4.17-3.63,7.69,7.69,0,0,1-2.15-3.73c-1.22-10.29-2.29-20.59-3.27-30.9-.26-2.76.85-5.08,2.85-7.22a34.94,34.94,0,0,0,5.5-7.73,8.23,8.23,0,0,0-5.23-11.59,50,50,0,0,0-8.15-1,29,29,0,0,0-3,0l-.15-.9a73,73,0,0,1,7.62-1.76c4.08-.52,8.33-.13,11.94-2.68-2.41,2.67-2.47,3.78-.45,6.84a31.45,31.45,0,0,1,2.44,4,5.26,5.26,0,0,1,.59,3.16c-1.65,6.86,2.55,12.74,9.65,13.47a24.35,24.35,0,0,1,4.08,1.15c-1.07,1.39-2.43,2.39-2.34,3.23.12,1.11,1.37,2.1,2.19,3.22-1.83,1.56-3.29,3.28-2.79,6,.83,4.67,5.61,9.63,10.31,10.06,2.44.23,3.24,1.37,3.21,3.56,0,.74.09,1.49.12,2.23.3,6.93.45,13.87,2.53,20.58,1.07,3.48,2.29,6.89,5.34,9.28-1.13,2.62,0,3.61,4.74,3.85.11,1,.29,2,.33,3,.21,5.06.18,10.15.64,15.19.43,4.73,1.74,5.75,6.49,6.22a10.15,10.15,0,0,0,1.35,0c2.53-.07,3.72-1.31,3.41-3.86a27.24,27.24,0,0,0-1.13-4.3c-.89-3-1.81-6-2.72-9,3,2,6,2.25,9,2.32a5.78,5.78,0,0,1,5.18,2.54c1.49,2.38,2.81,4.85,4.28,7.42a13.83,13.83,0,0,0-1.95.93c-2.68,1.92-5.57,3.65-7.93,5.93a5.62,5.62,0,0,0-1.23,6.43,5.92,5.92,0,0,0,5.8,3.74,14.18,14.18,0,0,1,3.56.38c3.06.79,6.72.61,7.11,5.38.09,1.13,2.32,2.1,3.57,3.15a25.54,25.54,0,0,0,2-3.69c.69-1.91,1.1-3.93,1.75-6.36,3.73,2.18,7,4.15,10.26,6,2.76,1.54,5.47,3.34,8.43,4.28,5.42,1.73,11,2.91,16.54,4.3,4.1,1,8.21,2.06,12.2,3-.76.42-1.77.89-2.68,1.5-1.7,1.15-2.9,2.79-2.57,4.85a29,29,0,0,0,6.86,15.21c1.93,2.15,4.47,3.41,7.36,2a69.81,69.81,0,0,0,7.5-4.3,19.93,19.93,0,0,0,7-7.88c1.77-3.43.48-5.5-3.33-6.08a2.89,2.89,0,0,1-2-1.76c-.49-3.79-.71-7.62-1-11.57,1.39-.31,2.22.27,2.32,1.9.05.67.11,1.34.17,2,.2,2.07.89,3.85,3.19,4.29,1.73.33,3.28-1.39,4.24-3.64a18,18,0,0,1,2.93-3.91c1.06-1.29,2.69-2.36,3.2-3.83,2.34-6.73,4.36-13.58,6.54-20.37a58.61,58.61,0,0,0,2.11-6,30.94,30.94,0,0,0,.31-6.25c-.09-8.65-.26-17.31-.34-26,0-1.82.24-3.65.37-5.54a6.22,6.22,0,0,0,6.1-2.13,2.59,2.59,0,0,0,0-3.61,41.61,41.61,0,0,1-3.56-5.62c-1.86-3.55-3.37-7.3-5.35-10.79-2.6-4.58-5.61-8.92-8.26-13.48-2.37-4.07-4.49-8.28-6.75-12.49,3-1.4,5.59-2.41,8-3.74,2.74-1.52,3.46-3.84,1.62-6.48a46.06,46.06,0,0,1-4.64-7.59c-2.15-5-3.81-10.15-5.83-15.19a105.83,105.83,0,0,0-4.47-9.68,6.32,6.32,0,0,0-2.77-2.46c-1.89-.9-3.45,0-4.7,1.51s-.32,2.3.63,3.44a3.1,3.1,0,0,1,.09,2.78c-1.71,3.46-1.75,7-1.23,10.71.12.87.22,1.74.34,2.66-3.51-.51-3.55-.48-4.55,2.89a3.68,3.68,0,0,1-.72,1.37c-1.2,1.35-2.45,2.65-4,4.32.93.14,1.56.42,2.06.26,2.51-.78,4.48.25,6.44,1.63,1.44,1,1.26,2-.08,2.69-2.54,1.36-5.15,2.59-7.77,3.81-2.92,1.36-5.94,2.54-8.79,4a5.33,5.33,0,0,0-3.21,5.8,17.9,17.9,0,0,1-3.09-1.64,1.74,1.74,0,0,1-.24-1.69c2.4-2.79,4.42-6.14,8.23-7.22a3.26,3.26,0,0,0,2.65-3.57c0-2.08-.24-4.17-.4-6.25-.11-1.44.14-2.44,2-2.45a1.85,1.85,0,0,0,2.1-2.05,7.9,7.9,0,0,0-6.86-7.66,21.67,21.67,0,0,1-3.55-.42,5.09,5.09,0,0,1-2.47-1.65c-1.75-2.36-3.12-5-5-7.26a36.45,36.45,0,0,0-14.18-10.4c-4.25-1.74-5.73-.81-6.68,3.55-5.36-1-9.83-.15-12.87,1.91-3.66,2.48-7.41,4.86-11.28,7a102.45,102.45,0,0,1-10.21,4.84,92.18,92.18,0,0,0-18.42,10.29c-4.58,3.32-9.68,1.07-10.7-4.48-.34-1.84-1.15-3.53-3.25-3.29-4,.48-8,1.25-12,2a3.22,3.22,0,0,0-2,1.32c-1.8,3.33-5.16,4.3-8.24,5.72,2.3-2.17,4.5-4.46,6.93-6.48,3.27-2.74,6.36-5.67,10.24-7.71,5.8-3.05,7.06-9.24,8.93-14.79.38-1.12-.68-3.35-1.76-4.17-.86-.65-2.8-.1-4.19.21-1.86.42-3.63,1.19-5.49,1.63a2,2,0,0,1-1.59-.74c-2.2-2.85-4-6.11-6.53-8.6-4.5-4.4-9-8.9-14.82-11.7-.14-.07-.19-.33-.33-.6,3.13-.12,5.88.42,8.07,2.74a3.64,3.64,0,0,0,1.82,1.24c3,.44,4.14,2.83,5.46,5a2.06,2.06,0,0,0,.5.73c.34.23.83.53,1.13.43s.53-.66.58-1a7.1,7.1,0,0,0-.23-1.67c1.7.65,3.19,1.13,4.6,1.76,6.7,3,13.19,3,19.71-.75a26.53,26.53,0,0,1,13.7-4,4.77,4.77,0,0,0,4.82-3c1.21-3.32,3.37-5.88,5.69-8.44,1.21-1.33,2.67-2.93,1.31-5.15-3.14-5.14-1.86-10.29.2-15.37a1.94,1.94,0,0,1,1.39-1,2.66,2.66,0,0,0,2.68-2.53c.43-3.52.73-7.06.89-10.6.11-2.49-1.56-3.76-3.75-4.36a15.34,15.34,0,0,0-3.3-.52c-4.65-.25-6.89,2.58-5.16,6.94.58,1.47,2.31,2.52,3.6,3.67a26.55,26.55,0,0,0,2.67,1.87c-4.9,1.41-9.44.49-13.95-.44-1.35-.28-1.91-1.37-.93-2.69s2.29-2.78,3.23-4.29c4.15-6.63,8.12-6.72,14.76-5.07,4,1,5.94,4.19,7.67,7.57,1.45,2.83,2.88,5.69,4.42,8.48,1,1.82,2.63,1.8,3.91.52a11.49,11.49,0,0,0,2.77-4.2,16.79,16.79,0,0,0,.92-5.92A15.21,15.21,0,0,1,328,525.44a11.72,11.72,0,0,0,3.87-8.06c.52-9.08.82-18.18,1.32-27.26a31.66,31.66,0,0,1,1-7.28,12.22,12.22,0,0,0-.05-7.68c-2.5-7.17-2.9-14.54-2.55-22.06a17.61,17.61,0,0,1,5-11.79c3.54-3.81,6.58-8.05,8-13.26.26-1,1.26-1.71,1.85-2.6a15.33,15.33,0,0,0,1.09-2,15.7,15.7,0,0,1,1.13-2.72,13.33,13.33,0,0,1,2.74-2.87c.71-.53,1.92-1.11,2.61-.86,2.56.93,5,2.2,7,3.13-1.43,3.23-2.56,6-3.94,8.71a5.16,5.16,0,0,1-2.32,1.83c-1.15.6-2.52.8-3.63,1.45-2,1.15-3.72,2.68-5.73,3.75-2.66,1.41-3.24,2.07-2.94,5a9.3,9.3,0,0,0,.83,3.46c1.77,3.31,3.68,6.55,5.65,9.75,1.84,3,2.89,3.16,5.62.85,1.86-1.57,3.55-3.34,5.36-5,1-.91,2.11-1.08,3.1.13s3,2.49,1.59,4.33c-2.65,3.47-2.62,7.17-1.61,11,1.05,4,3.38,5.46,7.48,4.68,4.38-.84,8.59-4.15,7-9.65-1.07-3.63-2.38-7.19-3.74-10.72-.42-1.1-.55-1.8.39-2.7,2.62-2.52,5.06-5.22,7.71-7.7a10.34,10.34,0,0,1,3.7-2.21c1.21-.41,2.5-.08,2.39,1.4-1.13,1.13-2.47,2.28-2.68,3.61-1,6.21,4.26,14.92,10.1,17.29,2.3.93,4.25.19,5.17-2.13a12.12,12.12,0,0,0,.81-3.46c.23-3.12.29-6.26.48-9.38.22-3.69.69-7.28,3.67-10a6.84,6.84,0,0,0,1.31-2.3c2-4.51,5.82-7.16,9.9-9.77a17.12,17.12,0,0,1,1.29-3.14c2.21-3.52,4.49-7,6.86-10.41a24.05,24.05,0,0,0,3.82-10.57,91.6,91.6,0,0,1,3-13,87.33,87.33,0,0,1,4.08-10.12c1.43-3.23.49-5.78-1.9-8q-3.18-3-6.42-5.83c-1.76-1.56-3.37-3.17-3.4-5.76a11,11,0,0,0-5.2-9.35c-2-1.39-4.18-2.6-6.19-4a6.42,6.42,0,0,0-6.29-.48,15.11,15.11,0,0,1-3.54,1.69c-5.72,1.39-11.45,2.72-17.21,3.92-4.2.87-8.45,1.67-12.71,2.17a33.38,33.38,0,0,1-8-.11c-1.67-.21-3.24-1.69-4.88-1.72-3.93-.08-5.52-2.69-7.12-5.55-2.43-4.33-5-8.6-7.36-12.95-1.11-2-2.77-2.71-5.27-3l11.34-12.36c-5.4-4.3-9.51-9.79-16.41-11.32a8.12,8.12,0,0,1-3-1.39c-2.21-1.64-4.66-1.67-7.2-1.41-.63.06-1.25.15-1.89.22-.26-4.89,2-7,6.19-5.36A107.21,107.21,0,0,1,341,300.44a28.79,28.79,0,0,1,3.46,2.52l.7-.34c-.34-4.28-.12-8.7-1.14-12.81-2.45-9.85-4.89-19.67-5.64-29.81-.41-5.57-1-11.19-.65-16.73.33-4.92,1.89-9.77,2.92-14.65,1.27-6,2.31-12.19,6.88-16.89a1.5,1.5,0,0,0,.26-.36,94.26,94.26,0,0,0,9.88-23.55c3.14-11.56,9.53-21.58,17.11-30.78,2.23-2.71,3.76-5.54,3.58-9.06-.63-12.22-1.43-24.42-1.92-36.64-.18-4.42-.55-9.18.79-13.25a35.39,35.39,0,0,0,1.47-18.23c-1.12-5.73-3.54-10.6-9.68-12.54a2.56,2.56,0,0,1-1.21-.93c-2.74-3.83-4.27-8-3.62-12.79s1.47-9.27,2.36-13.87c.48-2.47.73-5.23,2-7.22a52.52,52.52,0,0,1,7.79-9c3.71-3.52,7.84-6.6,11.69-10a50.49,50.49,0,0,0,5.08-5.26c2.09-2.49,1.56-4.73-1.55-5.72A63.17,63.17,0,0,0,382.25.46a10,10,0,0,0-8.71,2.47c-.65.59-1.21,1.29-1.84,1.89-4.22,4-8.49,7.91-12.64,12-2.65,2.58-5,5.44-7.71,8-4.29,4.06-8,8.86-13.92,10.89-3.43,1.18-6.81,2.49-10.3,3.45-4.95,1.36-10,2.49-15,3.63a11.64,11.64,0,0,1-8.83-1.12c-4.28-2.44-8.19-1.88-11.58,1.74-2.21,2.36-3.78,5.3-5.62,8-3.72,5.44-6.86,11.42-11.26,16.24-8.88,9.75-14,21.44-19.16,33.23-3,6.78-6.73,13.23-10.22,19.78-.9,1.68-2.2,3.14-3.17,4.79s-1.61,3.71-2.8,5.26c-2.8,3.66-5.86,7.11-8.78,10.67a91.4,91.4,0,0,1-17.82,16c-5.92,4.21-12.75,6.57-19.91,7.95-4.12.79-8.2,1.81-12.39.82-5.12-1.22-10.16-2.77-15.31-3.83-5.54-1.15-11.07-1.79-16.58.73-7.67,3.52-16.08,5.42-23,10.62a3.33,3.33,0,0,1-1.88.62c-3.77,0-7.62.26-11.3-.37-4.08-.7-8-2.39-12-3.44-3.48-.9-9.33,1.71-11.17,4.72a44.85,44.85,0,0,1-3,4.89C82,185.44,77.44,190.77,73,196.15a86.81,86.81,0,0,0-6,7.49c-5.24,8-10.45,16.06-15.36,24.28-3.73,6.25-7.07,12.73-10.42,19.19-4.73,9.15-5.7,19.05-5.39,29.13A10.1,10.1,0,0,0,40,284.55a5.83,5.83,0,0,0,4.21,1.09c1.83-.47,1.82-2.51,1.68-4.18-.11-1.33-.53-2.64-.59-4-.06-1.15-.74-2.8,1.16-3.09,1.71-.25,2.38,1,2.49,2.5a38,38,0,0,1,.28,6.47c-.54,5.79,2,9.83,6.65,12.92,1.89,1.28,3.87,2.46,5.63,3.89A44.18,44.18,0,0,1,73,313.38a124.79,124.79,0,0,1,5.61,12.81c.3.75-.14,2.46-.7,2.71a3.31,3.31,0,0,1-2.87-.63c-2.69-2.31-5.42-4.23-9.15-4.68-1.79-.22-3.51-1.44-5.14-2.41a5.44,5.44,0,0,0-6.77.67c-3.47-3.2-4.55,2.13-7.43,2.22.93-4.55-1.32-6.88-5.07-8.68-1.37-.65-2.13-2.76-2.92-4.33-.6-1.17-.51-2.74-1.23-3.79-1.23-1.81-1.07-3.66-.85-5.58.15-1.26.49-2.49.63-3.75a46.69,46.69,0,0,0,.52-6.66c-.09-2.45-3.06-5.52-5-5.53-2.42,0-2.75,2-3.24,3.67C28.12,293.24,27.5,297.27,26,301c-2.35,5.76-5.27,11.28-7.9,16.92A9.63,9.63,0,0,0,17,321.23c-.46,8.34-1.07,16.68-1.13,25-.07,10.59.3,21.18.58,31.77,0,1,.83,1.89,1.26,2.84,1-.49,2.09-.95,3.12-1.47a1.71,1.71,0,0,0,.6-.65c.86-1.45,1.95-1.29,2.89-.23q5.32,6,10.53,12.07a12,12,0,0,1,2.27,3.54c.58,1.61,1.4,1.87,2.89,1.44a6.33,6.33,0,0,1,2.06.12,6.81,6.81,0,0,1-.37,2.3c-.95,1.74-2.64,1.9-4.09.51-2.56-2.47-5.09-5-7.67-7.43-.78-.74-1.67-1.77-2.59-1.87a4.48,4.48,0,0,1-3.32-2.27,25.48,25.48,0,0,0-2.29-3,4.19,4.19,0,0,0-2.49-1.41c-.63,0-1.67,1.08-1.8,1.81-1,5.47-2.05,10.95-2.65,16.48-1.29,12.06-.74,24.26-3.52,36.24-2.15,9.25-1.52,18.83-1.51,28.31,0,6.69-.72,13.38-1.16,20.06-.13,1.89-.41,3.77-.63,5.8,2.37,0,4.45,0,6.53,0,3.12-.07,4.19-1.07,4.69-4.23a81.78,81.78,0,0,0,.56-23,26.9,26.9,0,0,1,0-3,20.11,20.11,0,0,1,3.29,1.63c3.57,2.77,7.18,5.51,10.56,8.52a14,14,0,0,1,4.55,8.71c.38,2.73.35,5.53.84,8.23s-.52,6.11,2.86,7.83c.19.1.29.53.3.81.07,1.9.07,3.79.17,5.68a14.62,14.62,0,0,0,.42,2.05c1.92-.47,2.26,1.18,2.7,2.27,1,2.62,1.87,5.33,2.66,8.05a2,2,0,0,1-.53,1.71c-4.09,3.78-8.24,7.5-12.41,11.2-1,.87-2.08,1.6-3.1,2.43-1.22,1-2.41,2-3.6,3.08-.75.65-1.49,1.33-2.23,2l-.82-.33c-.42-2.84-.95-5.67-1.22-8.52-.8-8.53-1.09-17.13-3.59-25.41a16.41,16.41,0,0,0-2.35-4.74c-1-1.39-2.49-1.17-3.17.42a9.15,9.15,0,0,0-.71,3.87c.47,12.23,1.14,24.45,1.5,36.68a232.88,232.88,0,0,1-.11,23.93c-.72,9.65-4.41,18.64-7.88,27.6Q4,598.83,0,609Zm666.54-2.89c0,.12.12.69.26,1.24.89,3.53,1.63,7.1,2.72,10.56s3.78,5.42,7.36,6.06a14.31,14.31,0,0,0,13.38-5.8c.28-.42.7-1,1.1-1,2-.23,1.86-1.62,1.73-3a34.17,34.17,0,0,0-.6-4.65c-1.66-7-3.4-14-5.1-21-2-8.4-3.79-16.87-6.18-25.16a91.94,91.94,0,0,1-3.16-13.43,67.92,67.92,0,0,0-2.88-12.76c-1.56-4.64-3.93-9-5.69-13.57a7,7,0,0,1-.05-4.43c1.39-4.08,3.32-8,4.64-12.07.84-2.61,1.78-4.33,4.91-4.22,1.74.07,2-1,1-2.55a2.28,2.28,0,0,1-.19-2c2.87-4,3-8.2,1.57-12.77-.57-1.89-.26-4.06-3.07-4.19-.25,0-.49-.32-.7-.53q-2.77-2.75-5.52-5.51c-2.57-2.6-5.42-4.58-9.3-4.59a7.1,7.1,0,0,1-2.55-.75c-4.5-1.86-8.94-3.87-13.49-5.6-2.91-1.11-6-1.79-9-2.73-1.42-.44-3-.72-4.12-1.61-2.59-2.15-5.29-1.66-7.74-.4a122.77,122.77,0,0,0-21.43,14.56c-7.3,6-14.88,11.58-22.08,17.67a175.08,175.08,0,0,0-12.92,12.5c-3.22,3.36-3.47,7.18-1.14,11.22a1.82,1.82,0,0,0,1.39.84c2.58-.32,5.14-.77,7.7-1.22,3.76-.65,7.5-1.52,11.29-1.9.91-.09,2.51,1.19,2.85,2.17a34.67,34.67,0,0,1,1.74,7.8,84.19,84.19,0,0,0,3.31,17.3c1,3.1,1.5,6.36,2.23,9.55-1-2-1.74-4.16-2.59-6.21-1.43-3.47-3.27-6.82-4.36-10.4-.85-2.81-.77-5.89-1.2-8.84-.35-2.35-.63-4.75-2.83-6.33-3.28-2.35-7.6-2.68-10.72-.58-3.31,2.24-3.55,5.67-2.66,9A138.18,138.18,0,0,0,579,540.24c1.51,4,1.26,3.19-1.81,4.69-7.27,3.53-11.49,9-11.24,17.4.09,3.13.23,6.27.12,9.4a9.68,9.68,0,0,1-1.08,3.74c-.79,1.62-1.84,3.1-2.79,4.65.19-.88.58-2.48,0-3.31s-2.35-1.24-3.77-1.9a26.9,26.9,0,0,0,.72-4.44,5,5,0,0,0-1.08-2.61c-.46-.67-1.48-1-1.83-1.67-1.15-2.24-2-4.65-3.16-6.87-2-3.82-4.23-4.83-8.43-3.75-2.25.58-4.36,1.72-6.57,2.48-.61.21-1.66.23-2-.14a2.19,2.19,0,0,1-.11-2,34.53,34.53,0,0,1,2.38-3.61c3.12,2.85,9,3.48,14.72,1.81-2.23-9.16-6.67-17.39-11.11-25.66,2.16,1.22,4.38,2.35,5.79,4.13s3.2,1.69,5,1.5a3.22,3.22,0,0,0,3.11-3.28,30.64,30.64,0,0,0-.79-7.9,5.22,5.22,0,0,1,1.22-5.61A13,13,0,0,0,559.67,507c-.29-2.87-1.58-4.16-4.46-3.67a28,28,0,0,0-7.05,2.5c-2.8,1.31-5.4,3.33-8.62,3.18A86.26,86.26,0,0,1,529,507.83c-8.66-1.47-17.31-3-25.93-4.69a59.53,59.53,0,0,1-8.63-2.52c-3.36-1.2-6.56-2.87-10-3.9-1.25-.38-3.61,0-4.16.89-.76,1.21-.42,3.2-.29,4.83a3,3,0,0,0,1.28,1.76c2.37,1.76,4.63,3.85,7.28,5,4.21,1.83,8.7,3,13.08,4.45,2.44.8,4.93,1.44,7.34,2.33a7.6,7.6,0,0,1,4.79,5,37.16,37.16,0,0,1,1.23,6.11c.6,4.88-1.12,10-7,12.31-2.2.85-4.11,2.53-6,4-1.24.94-2.36,1.5-3.85.66-.83-.48-1.74-.82-2.58-1.3-1.92-1.11-3.4-.38-3.45,1.86a10.43,10.43,0,0,0,.59,3c.62,2.14,1.38,4.25,2,6.4a5.28,5.28,0,0,1-1.58,5.7c-1.16,1-2.36,2.06-3.51,3.12-4.6,4.23-10.1,6.87-15.94,8.85-3,1-6.09,1.91-9.15,2.81a8.35,8.35,0,0,1-1.74.15l-.09-.61c.89-.32,1.8-.6,2.66-1,3.14-1.33,3.59-3.88,1-6-2.92-2.41-6.16-3.34-9.75-1.53a43.33,43.33,0,0,0-6.67,3.63c-2.67,2-5,2.57-7.57,0a5.7,5.7,0,0,0-2.46-1,26.24,26.24,0,0,0-14.36.08,15.19,15.19,0,0,0-4.9,2.76c-.74.58-1.48,2.07-1.22,2.77a3.62,3.62,0,0,0,2.7,1.54c9,.75,14.84,5.66,18.73,13.47-3.77.44-7.56.78-10.46,3.71-1.58,1.6-1.53,2.92.5,3.8a89,89,0,0,0,8.45,3.23c4.39,1.4,8.64,2.82,12.29,5.93A40,40,0,0,1,460.69,617c1.94,3.53,1.24,5.47-2.12,7.71a42.71,42.71,0,0,0-5.88,4.31c-3.87,3.71-2.71,8.14,2.4,9.77,2.7.86,5.14,2.24,6.24,4.92,2.15,5.21,4.46,10.41,5.9,15.83,1.23,4.67.72,9.46-3.84,12.64-1.87,1.3-3.86,2.44-5.79,3.66a47.52,47.52,0,0,0-4.11,2.68c-2.15,1.7-2.39,3.73-.68,5.84a25.7,25.7,0,0,0,3.75,3.77,2.17,2.17,0,0,0,3.17-.34,26,26,0,0,1,3-2.35c-.94,2.62-.95,3.52.7,5.74,2.05,2.73,4.32,5.3,6.37,8,2.82,3.75,5.22,7.72,6.11,12.48-3.35-.11-4.66,1.2-4,4l2.19-.18c.16,1.41.32,2.81.46,4.21.63,6.18,6.24,9.88,9.95,9.71,2-.09,4-1.62,6-2.47,1.73-.75,3.44-1.95,5.23-2.1,7.81-.66,15.18,1.68,22.57,3.81q10.56,3,21.16,6c1.17.33,1.83,0,2.07-1.48.15-1,1.34-1.8,2.15-2.59.14-.13,1.09.29,1.08.33a9.11,9.11,0,0,1-.83,3c-2.5,3.84-1.69,6.66,2.65,8.15,2.42.83,4.92,1.39,7.74,2.16a63.22,63.22,0,0,1-6.36,2.25c-2.28.56-3,1-2.2,3.27a55.91,55.91,0,0,0,3.32,6.78,9.28,9.28,0,0,0,5.36,4.76c2.51.87,4.07,2.81,5.56,4.87A18.06,18.06,0,0,1,555.4,764c-4.61-3.15-9.83-4.07-15.22-4.12-1.23,0-3,.62-3.57,1.54-.85,1.47.55,2.71,1.83,3.56,3.71,2.45,7.56,4.71,11.12,7.36,4.69,3.5,9.16,7.29,13.72,11a4.11,4.11,0,0,1,.57.67,11.67,11.67,0,0,0,8.65,4.34,30.54,30.54,0,0,1,8.29,2.24c.91.35,1.39,1.82,2.07,2.78l-.52.83c3.93.24,7.85.63,11.78.69a9.74,9.74,0,0,0,7.7-3.82,9.2,9.2,0,0,1,7.21-3.47c2.76,0,4.76-1.45,6.38-3.82,1.92-2.81,1.37-5.51.4-8.3-1.25-3.59-2.68-7.11-3.88-10.71-.43-1.28-1.23-2.73.91-3.71,4.29-2,5.76-5.16,4.94-9.84s-2.13-6-6.58-7c-.66-.15-1.31-.3-2-.42-2.91-.57-3.32-1.12-2.87-4.1a43.06,43.06,0,0,1,.85-4.39c2.39-9.14,7.73-15.3,17.4-16.87a53.35,53.35,0,0,1,8.46-.7c7.49,0,14.42-1.71,20.56-6.12,3.46-2.49,6.49-5.36,6.4-10.08-.2-9.47-2.3-18.41-7.5-26.5-1.3-2-2.09-4.37-3.22-6.51a1.89,1.89,0,0,0-1.47-.85,13.55,13.55,0,0,1-11.78-4.36,2.49,2.49,0,0,0-2-.47c-2.62.67-4.6-.63-6.24-2.22a23,23,0,0,1-4.68-5.89,15,15,0,0,1-1.6-6.78c.14-6,2.07-11.57,4.39-17,1.38-3.25,2.71-6.72,5.92-8.74,4.5-2.84,9.08-5.57,13.68-8.26,1.34-.78,3-1.06,4.26-1.94,3.12-2.2,6.22-1.84,9.48-.49a2.2,2.2,0,0,0,1.89-.09C663,609.75,664.74,607.91,666.54,606.1ZM429.85,750.82c.15-3.86-.69-7.23-4.39-9.27-1.61-.89-2.91-.33-4,.92a28,28,0,0,0-2.61,3.6A32.55,32.55,0,0,0,414,759.76c-.79,7.88-5.36,14-11,19.34a6.27,6.27,0,0,1-3.64,1.34c-1.65.13-2,.77-2.24,2.32a15.59,15.59,0,0,1-1.69,5.37,40.65,40.65,0,0,1-3.93,5.38c-3.46,4.42-6.08,12.46-1.41,18.4,1.57,2,.57,2.89-.91,4.08a112,112,0,0,0-9.3,7.92c-2.19,2.19-3.2,5-1.47,8.15,2.66,4.8,3.31,10.11,4.11,15.43.63,4.22.81,8.61,3.5,12.33,1,1.34,2,1.58,3.19.95a11.9,11.9,0,0,0,6.57-7.64c2.34-8.61,4.73-17.21,7.32-25.75,2-6.54,4.38-13,6.43-19.48,1.77-5.63,3.62-11.19,6.81-16.21a76.82,76.82,0,0,0,8.08-16.07C427.26,767.55,429.39,759.37,429.85,750.82ZM607.3,85.12c-.15,6.1.26,11,2.39,15.56,1,2.2,2,4.49,4.63,5.42,4.1,1.48,8.22,2.91,12.27,4.52a28.68,28.68,0,0,1,6.15,3.12c6.2,4.46,12.39,8.92,19.45,11.93a30,30,0,0,0,8.87,2.67c4,.34,7.48-1.88,10.93-3.78,3.82-2.1,5.35-5.2,5.21-9.54a73.76,73.76,0,0,1,.55-11.31c.57-4.66,1.62-9.25,2.31-13.89.73-4.94-1.09-7.41-6.07-8.36-2.12-.41-4.3-.51-6.41-.94a8.15,8.15,0,0,1-3.11-1.34c-4.35-3.22-6.3-8.24-9-12.64a10.5,10.5,0,0,0-5.24-4.83c-4.21-1.63-8.48-3.11-12.59-4.93a34.24,34.24,0,0,1-6.85-4.1c-4-3-7.68-6.48-11.72-9.46-2.69-2-4.29-1.27-5.28,1.91-.89,2.83-1.72,5.69-2.37,8.59C609,64.43,607.35,75.24,607.3,85.12ZM388,531.43a4.7,4.7,0,0,1-.36-.85,11.42,11.42,0,0,1-.11-1.55,18.86,18.86,0,0,0-3.88-11.42,27.06,27.06,0,0,1-5.31-12.13c-.31-2.21-.79-4.4-1.3-6.57-.66-2.83-1.82-3.84-4.15-3.83-2.91,0-4.44,1-4.82,3.89-.52,4-.69,8-.88,12-.17,3.45.79,6.14,4.54,7.48,3,1.06,3.86,3.33,2.77,6.34a24.69,24.69,0,0,1-2.73,5.58,35.38,35.38,0,0,0-6,19.34c-.2,5.27,2.65,9.68,4.05,14.49.11.36.54.86.85.88,3.07.19,6.13.38,9.2.41,2.27,0,4.09-.82,4.74-3.25.79-2.94,1.91-5.84,2.26-8.84a46.72,46.72,0,0,1,5.05-17.23,18.55,18.55,0,0,0,1.34-3.3,10.86,10.86,0,0,0,.27-2.07,7.44,7.44,0,0,0-1.91-.2C390.45,530.8,389.3,531.14,388,531.43ZM343.73,807.2l-.75.45a77.93,77.93,0,0,1-5.67-7.49,10,10,0,0,0-4.46-4,76.1,76.1,0,0,1-8.5-5.45c-2.44-1.7-4.65-3.74-7.14-5.35-2.1-1.35-3.49-.55-3.12,1.89a84.17,84.17,0,0,0,2.39,9.44c.19.7,1,1.45.87,2-.62,2.24,1,3.45,2,4.86,2,2.52,4.51,4.74,5.83,7.54,1.22,2.59,2.45,4.5,5.1,5.75,1.5.71,2.56,2.4,3.74,3.71,3.64,4,7.28,8,10.85,12.07,1.6,1.83,3.33,2,4.8.06a16.27,16.27,0,0,1,8.94-5.88,8.52,8.52,0,0,0,5.84-5.9c1.16-3.47-.17-6.36-2.26-9.11-2.26-3-4.56-3-6.87-.12-.59.75-1.33,1.39-2.23,2.32-.29-2.37-.38-4.23-.78-6-.65-3-2.18-5.2-5.38-5.87-2.37-.5-3.57.5-3.4,2.89Zm120-687.3-.09-.34c-4.29.76-8.64,1.28-12.85,2.33-5.91,1.47-11.78,3.18-17.55,5.1A8.82,8.82,0,0,0,429,130.4c-2.19,3.34-4,7-5.92,10.47-.86,1.52-.82,2.59.85,3.66,3.93,2.51,7.7,5.29,11.61,7.84a6,6,0,0,1,2.94,4.63,4.23,4.23,0,0,0,2.4,2.71c.82.32,2.32-.27,3.11-.93a8.15,8.15,0,0,0,1.75-3c.81-1.93,1.43-3.88,4-4.35a4.49,4.49,0,0,0,2.38-1.58c2.73-3.3,4.93-6.86,5-11.38.09-3.62.39-3.53,3.79-4.73a51,51,0,0,0,9.4-4.41,4.84,4.84,0,0,0-2.38-9C466.55,120.21,465.14,120,463.74,119.9ZM65.5,712.93l0,.21a19,19,0,0,0-3.79.27,19.4,19.4,0,0,0-4.81,1.88c-3.5,2-3.91,5.56-4,9.15-.17,6-.28,12.07-.49,18.11-.11,3-.32,6-2.17,8.52a1.28,1.28,0,0,0-.08,1.17,1.21,1.21,0,0,0,1.12.36c1.49-.73,2.37.07,3.27,1.08,2.85,3.18,4.93,3,7.57-.44a9.46,9.46,0,0,1,3.3-3.16,7.37,7.37,0,0,0,4.9-7c.17-4.46,0-8.93.07-13.4a3.1,3.1,0,0,1,.67-2.18c2.7-2.05,3.52-5.06,4.5-8a4.05,4.05,0,0,0-3-5.28C70.2,713.65,67.84,713.33,65.5,712.93ZM58.91,661.1c-.23-4.41-.35-7.76-.61-11.09-.13-1.66-.82-3-2.74-3.31a2.71,2.71,0,0,1-1.05-.68c-2.8-2.2-5.55-4.45-8.41-6.57a2.23,2.23,0,0,0-2.09-.11c-2.13,2.1-3.62,4.62-3.2,7.74q.88,6.75,2.14,13.43a17,17,0,0,0,1.68,3.82c.57,1.22,1.49,2.36,1.7,3.62.64,3.84,2.32,6.8,5.92,8.55,3,1.46,5,.62,5.48-2.68C58.31,669.26,58.59,664.65,58.91,661.1ZM525.78,308.51a5.06,5.06,0,0,0,3.44-3.66,19.28,19.28,0,0,1,4.83-8.14,26.51,26.51,0,0,0,3.53-4.8c1.48-2.54.29-4.42-2.69-4.31a24.66,24.66,0,0,0-3.95.72c-4.15.84-8.34,1.52-12.44,2.58-3.78,1-4.92,3.66-3.21,7a21.33,21.33,0,0,0,8,9.09C524.1,307.47,524.94,308,525.78,308.51ZM469.66,534.28a10.92,10.92,0,0,0-3.55-7,113.06,113.06,0,0,0-9.2-6.59c-1.45-1-3.49-2.31-4.79-.63-.83,1.08-.72,3.49-.14,5,2.45,6.16,7.26,10.16,13.13,12.92C468,539.21,469.7,537.88,469.66,534.28Zm-137.9,34.79c6.5-.25,9.78-4.64,9.33-11.49-.2-3-1.69-3.68-4.32-2.13a8.43,8.43,0,0,0-1.44,1.3c-2.46,2.39-4.39,5.46-8.47,5.56-.79,0-2,1.37-2.2,2.28a3.18,3.18,0,0,0,1.48,2.59A37.86,37.86,0,0,0,331.76,569.07Zm15.89,209.7c-2.72,1.1-5.66,1.85-8.11,3.38-2.88,1.8-2.64,4.82.21,6.69,1.23.8,2.68,1.27,4,2,4.88,2.72,6.94,2.22,9.59-2.37,1.5-2.59,1-4.24-1.62-5.66-.57-.31-1.4-.95-1.38-1.41C350.42,779.47,349.16,779.42,347.65,778.77Zm144.89,18.91c-.11,3.27,3.93,5.75,7.09,4.27a16,16,0,0,0,7.1-6.18,3.44,3.44,0,0,0-1.36-5.11C500.07,787.48,492.74,791.49,492.54,797.68Zm-21.35-71.17c0-4.8-1.2-9-5.74-11.46a5.77,5.77,0,0,0-3.94-.4c-.53.15-.94,2.06-.79,3.08a24.34,24.34,0,0,0,4.94,11.55c.74.94,2.61,1.39,3.91,1.3.6,0,1.12-1.9,1.6-3A3.1,3.1,0,0,0,471.19,726.51Zm49.31,58c-6.74,0-8,1.52-6.34,7.85.74,2.85,1.82,4,4.76,4.13a13.15,13.15,0,0,0,5.46-.64,5.72,5.72,0,0,0,3-3.14c1.27-4.2.61-8.42-5.81-8.2ZM69,686.59c-3.78-.14-5.92,2.75-6.56,5.76-.57,2.64.87,4.53,4,5.53,5.26,1.69,6.44.78,8.06-4.52C75.79,689.09,72.44,686.52,69,686.59ZM360.49,513.86c0-6.89-2.2-9.27-7.77-8.88-1.89.13-3.12,1.1-2.93,2.92a35.76,35.76,0,0,0,1.57,7.53c.64,1.91,4.92,3.33,7.09,2.65S360.41,515.39,360.49,513.86ZM254.83,689c.37,1.72.73,3.45,1.11,5.17.34,1.55,1.34,2.76,2.89,2.55a5.7,5.7,0,0,0,3.72-1.86,7.46,7.46,0,0,0,.13-8.41,3.09,3.09,0,0,1-.62-1.8c.28-1.64-.62-1.78-1.81-1.66C256.62,683.39,255.4,684.82,254.83,689Zm179.65-9.63c-2.56,3.57-4.83,6.61-6.9,9.79a2.45,2.45,0,0,0,.6,2.32c1.89,1.28,6.05.19,6.88-1.89C436.3,686.52,436.34,683.32,434.48,679.41ZM381.42,807.08l-.22-.06-.06-.89c-.18-2.61-1.31-4.08-3.15-4.13-2.09,0-3.79,1.73-4.14,4.16-.38,2.65.94,4.61,2.66,6.27,1.42,1.37,3.05.85,3.76-1.1C380.77,810,381,808.5,381.42,807.08Zm-52.29-34.17a10,10,0,0,0-4.55-8.12c-2-1.33-3.54-.79-4.45,1.36-1.58,3.74,2.39,9.19,6.4,8.55C327.58,774.54,328.48,773.38,329.13,772.91Zm293.42-10.39c-3.36-.45-7,4.34-5.75,7.52,1,2.63,2.9,3.58,5,1.82a8.3,8.3,0,0,0,3.12-7.23C624.82,763.19,624.09,762.27,622.55,762.52ZM309.34,771c4.61-3.09,4.76-7.54.41-10-2.55-1.46-4.69-.32-4.77,2.61C304.9,766.81,306,769.48,309.34,771Zm208.77,40.47c.13-2.2-1.18-3.54-3.55-3.64a5,5,0,0,0-5.32,4.35,3.65,3.65,0,0,0,3.2,3.91C515.12,816.21,518,813.89,518.11,811.42Z"/><path d="M0,609q4-10.17,7.9-20.33c3.47-9,7.16-17.95,7.88-27.6a232.88,232.88,0,0,0,.11-23.93c-.36-12.23-1-24.45-1.5-36.68a9.15,9.15,0,0,1,.71-3.87c.68-1.59,2.16-1.81,3.17-.42a16.41,16.41,0,0,1,2.35,4.74c2.5,8.28,2.79,16.88,3.59,25.41.27,2.85.8,5.68,1.22,8.52l.82.33c.74-.67,1.48-1.35,2.23-2,1.19-1,2.38-2.08,3.6-3.08,1-.83,2.12-1.56,3.1-2.43,4.17-3.7,8.32-7.42,12.41-11.2a2,2,0,0,0,.53-1.71c-.79-2.72-1.62-5.43-2.66-8.05-.44-1.09-.78-2.74-2.7-2.27a14.62,14.62,0,0,1-.42-2.05c-.1-1.89-.1-3.78-.17-5.68,0-.28-.11-.71-.3-.81-3.38-1.72-2.36-5.1-2.86-7.83s-.46-5.5-.84-8.23a14,14,0,0,0-4.55-8.71c-3.38-3-7-5.75-10.56-8.52A20.11,20.11,0,0,0,19.77,461a26.9,26.9,0,0,0,0,3,81.78,81.78,0,0,1-.56,23c-.5,3.16-1.57,4.16-4.69,4.23-2.08.05-4.16,0-6.53,0,.22-2,.5-3.91.63-5.8.44-6.68,1.17-13.37,1.16-20.06,0-9.48-.64-19.06,1.51-28.31,2.78-12,2.23-24.18,3.52-36.24.6-5.53,1.65-11,2.65-16.48.13-.73,1.17-1.8,1.8-1.81a4.19,4.19,0,0,1,2.49,1.41,25.48,25.48,0,0,1,2.29,3,4.48,4.48,0,0,0,3.32,2.27c.92.1,1.81,1.13,2.59,1.87,2.58,2.44,5.11,5,7.67,7.43,1.45,1.39,3.14,1.23,4.09-.51a6.81,6.81,0,0,0,.37-2.3,6.33,6.33,0,0,0-2.06-.12c-1.49.43-2.31.17-2.89-1.44a12,12,0,0,0-2.27-3.54q-5.19-6.1-10.53-12.07c-.94-1.06-2-1.22-2.89.23a1.71,1.71,0,0,1-.6.65c-1,.52-2.08,1-3.12,1.47-.43-.95-1.23-1.89-1.26-2.84-.28-10.59-.65-21.18-.58-31.77.06-8.35.67-16.69,1.13-25a9.63,9.63,0,0,1,1.07-3.36c2.63-5.64,5.55-11.16,7.9-16.92,1.5-3.68,2.12-7.71,3.29-11.53.49-1.63.82-3.69,3.24-3.67,2,0,5,3.08,5,5.53a46.69,46.69,0,0,1-.52,6.66c-.14,1.26-.48,2.49-.63,3.75-.22,1.92-.38,3.77.85,5.58.72,1.05.63,2.62,1.23,3.79.79,1.57,1.55,3.68,2.92,4.33,3.75,1.8,6,4.13,5.07,8.68,2.88-.09,4-5.42,7.43-2.22a5.44,5.44,0,0,1,6.77-.67c1.63,1,3.35,2.19,5.14,2.41,3.73.45,6.46,2.37,9.15,4.68a3.31,3.31,0,0,0,2.87.63c.56-.25,1-2,.7-2.71A124.79,124.79,0,0,0,73,313.38a44.18,44.18,0,0,0-11.46-13.2c-1.76-1.43-3.74-2.61-5.63-3.89-4.6-3.09-7.19-7.13-6.65-12.92a38,38,0,0,0-.28-6.47c-.11-1.48-.78-2.75-2.49-2.5-1.9.29-1.22,1.94-1.16,3.09.06,1.33.48,2.64.59,4,.14,1.67.15,3.71-1.68,4.18A5.83,5.83,0,0,1,40,284.55a10.1,10.1,0,0,1-4.13-8.31c-.31-10.08.66-20,5.39-29.13,3.35-6.46,6.69-12.94,10.42-19.19,4.91-8.22,10.12-16.26,15.36-24.28a86.81,86.81,0,0,1,6-7.49c4.44-5.38,9-10.71,13.35-16.14a44.85,44.85,0,0,0,3-4.89c1.84-3,7.69-5.62,11.17-4.72,4,1,7.93,2.74,12,3.44,3.68.63,7.53.33,11.3.37a3.33,3.33,0,0,0,1.88-.62c6.91-5.2,15.32-7.1,23-10.62,5.51-2.52,11-1.88,16.58-.73,5.15,1.06,10.19,2.61,15.31,3.83,4.19,1,8.27,0,12.39-.82,7.16-1.38,14-3.74,19.91-7.95a91.4,91.4,0,0,0,17.82-16c2.92-3.56,6-7,8.78-10.67,1.19-1.55,1.79-3.55,2.8-5.26s2.27-3.11,3.17-4.79c3.49-6.55,7.23-13,10.22-19.78C260.89,89,266,77.34,274.86,67.59c4.4-4.82,7.54-10.8,11.26-16.24,1.84-2.7,3.41-5.64,5.62-8,3.39-3.62,7.3-4.18,11.58-1.74a11.64,11.64,0,0,0,8.83,1.12c5-1.14,10-2.27,15-3.63,3.49-1,6.87-2.27,10.3-3.45,5.88-2,9.63-6.83,13.92-10.89,2.68-2.54,5.06-5.4,7.71-8,4.15-4.05,8.42-8,12.64-12,.63-.6,1.19-1.3,1.84-1.89A10,10,0,0,1,382.25.46a63.17,63.17,0,0,1,9.35,2.08c3.11,1,3.64,3.23,1.55,5.72a50.49,50.49,0,0,1-5.08,5.26c-3.85,3.38-8,6.46-11.69,10a52.52,52.52,0,0,0-7.79,9c-1.31,2-1.56,4.75-2,7.22-.89,4.6-1.72,9.23-2.36,13.87s.88,9,3.62,12.79a2.56,2.56,0,0,0,1.21.93c6.14,1.94,8.56,6.81,9.68,12.54a35.39,35.39,0,0,1-1.47,18.23c-1.34,4.07-1,8.83-.79,13.25.49,12.22,1.29,24.42,1.92,36.64.18,3.52-1.35,6.35-3.58,9.06-7.58,9.2-14,19.22-17.11,30.78a94.26,94.26,0,0,1-9.88,23.55,1.5,1.5,0,0,1-.26.36c-4.57,4.7-5.61,10.85-6.88,16.89-1,4.88-2.59,9.73-2.92,14.65-.37,5.54.24,11.16.65,16.73.75,10.14,3.19,20,5.64,29.81,1,4.11.8,8.53,1.14,12.81l-.7.34a28.79,28.79,0,0,0-3.46-2.52,107.21,107.21,0,0,0-11.78-5.81C325,293,322.77,295.1,323,300c.64-.07,1.26-.16,1.89-.22,2.54-.26,5-.23,7.2,1.41a8.12,8.12,0,0,0,3,1.39c6.9,1.53,11,7,16.41,11.32l-11.34,12.36c2.5.28,4.16,1,5.27,3,2.39,4.35,4.93,8.62,7.36,12.95,1.6,2.86,3.19,5.47,7.12,5.55,1.64,0,3.21,1.51,4.88,1.72a33.38,33.38,0,0,0,8,.11c4.26-.5,8.51-1.3,12.71-2.17,5.76-1.2,11.49-2.53,17.21-3.92a15.11,15.11,0,0,0,3.54-1.69,6.42,6.42,0,0,1,6.29.48c2,1.39,4.16,2.6,6.19,4a11,11,0,0,1,5.2,9.35c0,2.59,1.64,4.2,3.4,5.76q3.24,2.88,6.42,5.83c2.39,2.23,3.33,4.78,1.9,8a87.33,87.33,0,0,0-4.08,10.12,91.6,91.6,0,0,0-3,13,24.05,24.05,0,0,1-3.82,10.57c-2.37,3.41-4.65,6.89-6.86,10.41a17.12,17.12,0,0,0-1.29,3.14c-4.08,2.61-7.87,5.26-9.9,9.77a6.84,6.84,0,0,1-1.31,2.3c-3,2.72-3.45,6.31-3.67,10-.19,3.12-.25,6.26-.48,9.38a12.12,12.12,0,0,1-.81,3.46c-.92,2.32-2.87,3.06-5.17,2.13-5.84-2.37-11.07-11.08-10.1-17.29.21-1.33,1.55-2.48,2.68-3.61.11-1.48-1.18-1.81-2.39-1.4a10.34,10.34,0,0,0-3.7,2.21c-2.65,2.48-5.09,5.18-7.71,7.7-.94.9-.81,1.6-.39,2.7,1.36,3.53,2.67,7.09,3.74,10.72,1.62,5.5-2.59,8.81-7,9.65-4.1.78-6.43-.65-7.48-4.68-1-3.88-1-7.58,1.61-11,1.4-1.84-.54-3.06-1.59-4.33s-2.08-1-3.1-.13c-1.81,1.64-3.5,3.41-5.36,5-2.73,2.31-3.78,2.15-5.62-.85-2-3.2-3.88-6.44-5.65-9.75a9.3,9.3,0,0,1-.83-3.46c-.3-3,.28-3.63,2.94-5,2-1.07,3.76-2.6,5.73-3.75,1.11-.65,2.48-.85,3.63-1.45a5.16,5.16,0,0,0,2.32-1.83c1.38-2.68,2.51-5.48,3.94-8.71-2-.93-4.48-2.2-7-3.13-.69-.25-1.9.33-2.61.86a13.33,13.33,0,0,0-2.74,2.87,15.7,15.7,0,0,0-1.13,2.72,15.33,15.33,0,0,1-1.09,2c-.59.89-1.59,1.64-1.85,2.6-1.38,5.21-4.42,9.45-8,13.26a17.61,17.61,0,0,0-5,11.79c-.35,7.52.05,14.89,2.55,22.06a12.22,12.22,0,0,1,.05,7.68,31.66,31.66,0,0,0-1,7.28c-.5,9.08-.8,18.18-1.32,27.26a11.72,11.72,0,0,1-3.87,8.06,15.21,15.21,0,0,0-5.25,12.08,16.79,16.79,0,0,1-.92,5.92,11.49,11.49,0,0,1-2.77,4.2c-1.28,1.28-2.91,1.3-3.91-.52-1.54-2.79-3-5.65-4.42-8.48-1.73-3.38-3.65-6.57-7.67-7.57-6.64-1.65-10.61-1.56-14.76,5.07-.94,1.51-2.17,2.85-3.23,4.29s-.42,2.41.93,2.69c4.51.93,9.05,1.85,13.95.44a26.55,26.55,0,0,1-2.67-1.87c-1.29-1.15-3-2.2-3.6-3.67-1.73-4.36.51-7.19,5.16-6.94a15.34,15.34,0,0,1,3.3.52c2.19.6,3.86,1.87,3.75,4.36-.16,3.54-.46,7.08-.89,10.6a2.66,2.66,0,0,1-2.68,2.53,1.94,1.94,0,0,0-1.39,1c-2.06,5.08-3.34,10.23-.2,15.37,1.36,2.22-.1,3.82-1.31,5.15-2.32,2.56-4.48,5.12-5.69,8.44a4.77,4.77,0,0,1-4.82,3,26.53,26.53,0,0,0-13.7,4c-6.52,3.73-13,3.73-19.71.75-1.41-.63-2.9-1.11-4.6-1.76a7.1,7.1,0,0,1,.23,1.67c0,.38-.3.94-.58,1s-.79-.2-1.13-.43a2.06,2.06,0,0,1-.5-.73c-1.32-2.21-2.43-4.6-5.46-5a3.64,3.64,0,0,1-1.82-1.24c-2.19-2.32-4.94-2.86-8.07-2.74.14.27.19.53.33.6,5.81,2.8,10.32,7.3,14.82,11.7,2.54,2.49,4.33,5.75,6.53,8.6a2,2,0,0,0,1.59.74c1.86-.44,3.63-1.21,5.49-1.63,1.39-.31,3.33-.86,4.19-.21,1.08.82,2.14,3,1.76,4.17-1.87,5.55-3.13,11.74-8.93,14.79-3.88,2-7,5-10.24,7.71-2.43,2-4.63,4.31-6.93,6.48l-.79.29c-3.61,2.55-7.86,2.16-11.94,2.68a73,73,0,0,0-7.62,1.76l.15.9a29,29,0,0,1,3,0,50,50,0,0,1,8.15,1,8.23,8.23,0,0,1,5.23,11.59,34.94,34.94,0,0,1-5.5,7.73c-2,2.14-3.11,4.46-2.85,7.22,1,10.31,2,20.61,3.27,30.9a7.69,7.69,0,0,0,2.15,3.73,28.35,28.35,0,0,0,4.17,3.63c2.08,1.57,3.13,1.49,4.77-.47,1.33-1.6,2.69-2.83,4.91-1.87,2,.86,4.49,4.52,4.11,6.23a3.79,3.79,0,0,1-3.19,3.26c-1.47.2-3,.16-4.19.22-2.6,4.57-5,9.11-7.7,13.43a39.59,39.59,0,0,1-5.54,6.66c-2.09,2.11-4.89,1.79-7-.21a2.72,2.72,0,0,0-2.37-.64c-3,1.68-5.79,3.59-8.66,5.42-1.64,1-2,2.25-.68,3.86s1.56,3-.3,4.4a2,2,0,0,0-.38,2.93c.58.83,1.14,1.69,1.92,2.85a51,51,0,0,1,1.12-6.2c.52-1.67,1-4.14,3.45-3.55s1.93,2.91,1.73,4.72c-.36,3.28-2.37,5.67-4.63,7.87,2,5.24,1.54,7.09-2.85,10.85-1.67,1.43-3.26,3-5,4.57,1.67,0,3.18,0,4.69,0,2.09-.05,4.18-.05,6.26-.25,4.07-.39,7.06,1.43,9.81,4.2a38.74,38.74,0,0,0,5.27,3.78c0-1.64,0-2.67,0-3.7a3,3,0,0,0-2.32-3.16,20.48,20.48,0,0,1-2.32-.8c-2.35-1-2.78-2.52-1.21-4.58.72-1,1.76-1.64,2.45-2.6.82-1.15,1.33-2.52,2.16-3.67.46-.63,1.26-1.43,1.93-1.45,6.54-.21,13.08-.33,19.19,2.74.69.35,1.8-.16,3-.3,7.73,8.57,10.91,10.69,14.89,10.23a85,85,0,0,0,4.93,7c3.7,4.25,7.57,8.35,11.47,12.42,1.38,1.44,3,2.53,5.09.87.26-.22,1-.09,1.34.11.15.08.16.92-.05,1.15-3.29,3.63-1.64,7.69-1.18,11.71a109.59,109.59,0,0,1,.73,11.73c0,2.2-1.7,3.07-3.81,3.7a37.36,37.36,0,0,0-9.52,3.91c-5.78,3.7-14.65,2.06-18-3.92a6.25,6.25,0,0,0-5.4-3.3,16.63,16.63,0,0,1-5.14-1.7c-1.8-.85-5.44,0-6.15,1.84a3.12,3.12,0,0,0,.35,2.44c2.92,4.55,1.35,8.7-1,12.78a4.4,4.4,0,0,1-4.93,2.26,26.11,26.11,0,0,1-10.41-4.24c-2.73-1.91-6.05-1.82-9.29-1.54-4.14.36-7.58,2.48-11,4.52-3.17,1.89-6,4.29-9.13,6.31-2.16,1.41-3,1-3.46-1.58a21.69,21.69,0,0,1-.23-2.67c-.13-2.88-.15-3.08-2.9-2.68a62,62,0,0,0-8.68,2c-2.69.79-5.23,2.12-7.94,2.8-5,1.26-12.83-3.48-14.17-8.4a8.86,8.86,0,0,1-.19-3.08c.28-2.82-.34-4.13-3.05-4.86a73.16,73.16,0,0,0-8.32-1.61c-9.42-1.38-18.11-5.17-27.05-8.1-4-1.3-7.89-3-12-3.93-6.16-1.34-12,.78-17.9,2.39a25.47,25.47,0,0,1-9.44.94c-1.44-.17-3.09-2.49-3.76-4.19a15.87,15.87,0,0,1-1.2-7.18c.83-8.43-.24-16.67-1.77-24.9a41.62,41.62,0,0,1,.81-17.74c1.59-6.5,3.67-12.88,5.19-19.39a19.21,19.21,0,0,0,0-7.48c-.8-4.45-2-8.85-3.18-13.23-2-7.25-1.89-14.6-1.31-22,1-12.7,0-25.17-4.3-37.26-1.32-3.7-4.28-5.86-7.44-7.62-2.52-1.4-5.44-2-8.05-3.31a139.39,139.39,0,0,1-12.3-6.57,13.61,13.61,0,0,1-6-8.77,8.78,8.78,0,0,0-3-4.21c-3.69-3-6.37-6.61-7.39-11.33a.87.87,0,0,0,0-.22c-.64-1.32-1.16-3.15-2.94-2.71-.59.14-1.15,2.3-1,3.42a25.66,25.66,0,0,0,5.61,12.69c2.41,2.89,4.42,6,5,9.81.21,1.48.52,3-1.08,4-.27.18-.21.83-.35,1.24-.25.73-.34,1.78-.85,2.08a2.34,2.34,0,0,1-2.16-.35c-3.08-2.78-6.14-5.59-9.05-8.56-4.52-4.61-8.87-9.4-15.13-11.8-2-.75-3.82-1.85-5.73-2.78A10.24,10.24,0,0,1,0,612.57ZM17.35,496.86l-1.09.13a25,25,0,0,0-.27,3.1c.6,15.66,1.29,31.32,1.84,47,.24,7,.16,14-1.54,20.91a174.32,174.32,0,0,1-9.9,28.43c-1.58,3.6-3.08,7.26-4.31,11-1.56,4.69-.36,7.15,4,9.24,2.39,1.15,4.88,2.13,7.17,3.44,2.64,1.51,5.47,3,7.6,5.06,5,4.93,9.62,10.23,14.4,15.39a45.56,45.56,0,0,1,2.18-4.2,2,2,0,0,0,.34-1.41,77.07,77.07,0,0,0-3-7.37,30.6,30.6,0,0,0-2.77-3.74A29.85,29.85,0,0,1,27,610.6a3.52,3.52,0,0,1,2.24-4.17c1.8-.66,3,.57,3.9,1.9a6.36,6.36,0,0,1,1,2.2c1,4.52,3.75,7.81,7.19,10.69,1.9,1.59,3.52,3.39,3.6,6.16A4.14,4.14,0,0,0,46.16,630c2.22,2.14,4.35,4.55,7,6.06,3.89,2.24,8.17,3.8,12.28,5.65a67.68,67.68,0,0,1,6.68,3.11,14.34,14.34,0,0,1,6.37,7.74c3.88,11.14,5,22.64,4.55,34.37a148.5,148.5,0,0,0,0,18.75c.43,4.91,2.21,9.7,3.25,14.57.94,4.35,2.41,8.65,1,13.2s-2.89,9.08-4.08,13.69c-2.29,8.81-3.37,17.64-1.29,26.75A57.29,57.29,0,0,1,83,793.18a22,22,0,0,0,.78,7.71c.72,2.88,2.23,3.8,5.13,3.39,4-.55,7.9-1.53,11.87-2.09s8.08-1.58,11.91-1c5,.74,9.72,2.88,14.57,4.4,7.65,2.4,15.26,4.9,23,7.11,3.7,1.06,7.63,1.35,11.35,2.38,3.4.95,4.33,2.63,4.16,5.95-.24,4.89,1.5,7.5,6.11,9.12,3.47,1.22,6.81.81,10.27-.33a98.5,98.5,0,0,1,13.14-3.46c3.1-.56,4.15.67,4.42,3.84.1,1.2.16,2.41.28,4.19,1.17-.94,1.85-1.58,2.61-2.09,5-3.34,9.47-7.48,15.48-9,5.55-1.39,10.87-1.15,16,1.86a31.86,31.86,0,0,0,7.71,3.08,3.59,3.59,0,0,0,3.14-1.29c2.16-3.54,4-7.22,1.19-11.42-1-1.5-1.37-3.38.23-4.92,1.79-1.72,5.65-2.57,7.27-1.84a11.27,11.27,0,0,0,4.31,1.44c3.7,0,5.81,1.86,7.49,4.92,2.19,4,8,6,12.52,3.76,4.31-2.09,9-3.41,13.56-5,1.34-.46,2.41-1.06,2.34-2.56-.13-3.25-.22-6.51-.67-9.73-.55-4-1.88-7.84-.61-11.48a41.28,41.28,0,0,1-5.31-3.62A106,106,0,0,1,279,778c-2.26-2.63-4.17-5.56-6.26-8.33a2.34,2.34,0,0,0-1.14-.92c-5.44-1.23-9.26-4.82-12.91-8.7A4,4,0,0,0,257,759c-1.42-.42-2.95-.49-4.32-1a37.1,37.1,0,0,0-15.29-2.28,2.92,2.92,0,0,0-2,.72c-1.61,1.89-3,4-4.59,5.85s-1.52,2.49.72,3c3.87.9,5.67,2.58,5.09,8.2-.2,1.88-1.33,2.42-2.77,1.52a50.69,50.69,0,0,1-7.13-5.18,5.67,5.67,0,0,0-4.08-1.81c-4.1.07-8.21.14-12.31.25-2,0-4,.18-6.56.29,3.9-3.3,7.39-6.16,10.75-9.17,2.58-2.3,2.79-4.13,1.12-7.14-.79-1.42-1.59-2.85-2.45-4.23-2.54-4.06-2.54-4.47.35-7.82-2.74-4.49-2.57-5.27,1.91-8.36a45.53,45.53,0,0,0,4-2.75c3-2.6,5.58-2.65,8.71-.27a2.66,2.66,0,0,0,2.55.09,30.2,30.2,0,0,0,5.37-5.59,80,80,0,0,0,6.88-12c1.31-3,2.79-4.51,6.06-3.85a2.08,2.08,0,0,0,.88-.11c1.91-.48,2.42-1.71,1.26-3.3-.9-1.25-1.95-2.4-2.91-3.58a46.55,46.55,0,0,1-4.1,3.34c-.83.52-2.15,1.14-2.85.83-4.34-1.93-8.82-4.46-9.57-9.43-1.55-10.3-2.36-20.72-3.35-31.11-.34-3.54,1.06-6.43,3.66-9a28.51,28.51,0,0,0,4.65-6.19,6.26,6.26,0,0,0-1-8,9.3,9.3,0,0,0-6.26-2.93c-2.61,0-5.22,0-7.82-.06a9.44,9.44,0,0,1-2.42-.77c.42-.72.67-1.67,1.28-2.11a18.81,18.81,0,0,1,11.85-3.71,15.84,15.84,0,0,0,11.76-4.56c2.81-2.65,5.68-5.23,8.63-7.71,1.5-1.25,3.32-2.1,4.86-3.3,1.73-1.35,3.71-2.64,4.85-4.42a52.86,52.86,0,0,0,4.28-8.94,3.53,3.53,0,0,0-.48-2.89c-.32-.46-1.64-.48-2.44-.32-2,.42-4,1.12-6,1.57a3.33,3.33,0,0,1-3.91-1.31c-2.28-3.25-4.45-6.69-7.28-9.42-4.69-4.53-9.61-8.9-15.73-11.57-.41-.17-1.13-.43-1.12-.62,0-.71.3-2,.52-2,3.74-.15,7.55-.81,10.85,1.92,1.56,1.29,3.56,2,5.17,3.26a12.57,12.57,0,0,0,6,2.7c2.62.4,5,2,7.59,3a14.09,14.09,0,0,0,11.51-.52c2.05-1,3.94-2.47,6.08-3.11a90.7,90.7,0,0,1,10.64-2.3c1.83-.32,3.39-.61,4.43-2.46a82.15,82.15,0,0,1,4.89-7.62c1.39-2,3.44-3.68.84-6.15a2,2,0,0,1-.37-1,22.13,22.13,0,0,1,1.79-14.37c.36-.74,1.43-1.14,2.16-1.71s1.62-.89,1.71-1.45a69.37,69.37,0,0,0,1-9.07c.08-2.74-1-3.64-3.74-4a15.18,15.18,0,0,0-2.22-.22c-1.27,0-2.81-.58-3.43,1.21-.75,2.19-.14,4.73,1.4,5.67.89.53,1.86.94,2.8,1.38,1.37.65,2.73,1.61,2.06,3.16a3.7,3.7,0,0,1-3,1.7,113.12,113.12,0,0,1-12.87-1.17c-2.75-.44-3.44-2.29-1.92-4.63a46.49,46.49,0,0,1,5.72-7.65,13.44,13.44,0,0,1,6.27-3.85c4.38-.9,8.52.73,12,3.42A13.6,13.6,0,0,1,311,536c1.6,2.84,2.9,5.86,4.46,8.73.45.82,1.53,2,2,1.91a3.64,3.64,0,0,0,2.33-2.08,32.32,32.32,0,0,0,1.33-7.4c.18-4.87,1.7-9.07,5.31-12.36a12.52,12.52,0,0,0,4.08-9.12c.36-7.6.53-15.21,1-22.81.21-3.63.92-7.22,1.27-10.85.18-2,.6-4.13,0-5.89-2.54-7.5-3-15.16-2.69-23a18.66,18.66,0,0,1,5.16-12.69,37.76,37.76,0,0,0,7.88-12.54,40,40,0,0,1,5.79-10,7.61,7.61,0,0,1,5.37-2.44c2,0,4.13,1.14,6,2.14,2.53,1.33,2.91,2.78,1.92,4.6-1.27,2.33-2.23,4.84-3.6,7.1a10.69,10.69,0,0,1-3.24,3.25c-1.25.81-2.88,1-4.23,1.7-1.71.88-3.21,2.26-5,2.93-2.22.84-2.41,2.21-2.09,4.21.87,5.49,4.92,9.15,7.64,13.95l2.88-2.51a62.28,62.28,0,0,1,5-4.35c1.93-1.37,3.24-1,5.07,1,2.13,2.26,2.67,4.2,1.21,5.93-2.16,2.57-2.24,5.48-1.72,8.46.34,1.93.8,4.07,3.14,4.76,4.34,1.27,10.16-2.41,8.72-7.48-1.14-4-2.71-7.85-4.19-11.73-.38-1-.58-1.66.3-2.54,2.36-2.36,4.48-5,6.93-7.23a22.94,22.94,0,0,1,5.43-3.64,3.93,3.93,0,0,1,4.91.94c1.27,1.45.88,3.24-1,3.63-2,.43-2.19,1.84-1.77,3.19a60.45,60.45,0,0,0,3.73,10,9.81,9.81,0,0,0,4.43,3.84c3.16,1.49,4.6.58,5-2.9a44.65,44.65,0,0,0,.36-8.71c-.63-7.09,3.58-12.21,7.06-17.49,1.77-2.68,4.84-4.51,7.29-6.75a6.2,6.2,0,0,0,1.06-1.37c2.39-3.75,4.59-7.63,7.2-11.23a24.1,24.1,0,0,0,4.41-12.18,56.15,56.15,0,0,1,2.67-11.45,108.86,108.86,0,0,1,4.46-10.93c1-2.34.31-4.21-1.22-5.89-1-1.1-2.21-2-3.3-3-1.69-1.54-3.64-2.91-4.95-4.73s-1.71-3.84-2.5-5.79c-.67-1.68-.86-3.85-2.05-5a53.66,53.66,0,0,0-8.88-6.52c-1.05-.63-2.89-.29-4.26,0-7.92,1.95-15.73,4.47-23.73,5.94-7.61,1.4-15.3,3.07-23.17.26-3-1.07-5.7-2.05-7.34-4.77-1.92-3.17-3.51-6.54-5.36-9.76s-2.94-6.92-7.49-7.35c-.41,0-1.11-1.57-.93-2.19a7.71,7.71,0,0,1,1.87-2.73c2.24-2.48,4.51-4.93,6.86-7.31,1.2-1.21,1.29-2-.15-3.19-2.2-1.75-4.21-3.74-6.39-5.53a12.11,12.11,0,0,0-2.9-1.63c-1.49-.65-3.09-1.06-4.57-1.75-3.17-1.47-6.35-2.54-9.93-1.69-1.52.36-2.38-.41-2.48-2-.28-4.88,2.06-9.1,8.06-7.24,3.2,1,6.11,2.9,9.13,4.44,1.49.77,2.92,1.64,4.62,2.61a29.37,29.37,0,0,0-.05-5.43c-1-4.73-2.41-9.38-3.21-14.13-1.38-8.22-2.6-16.48-3.51-24.77a56.09,56.09,0,0,1-.1-13.14,165.45,165.45,0,0,1,3.58-17.72c1.05-4.38,2.38-8.57,5.15-12.45A75.15,75.15,0,0,0,353,197.22c2.08-5,3-10.47,5-15.48a89.16,89.16,0,0,1,14.7-24.6A16.72,16.72,0,0,0,377,144.32c-.15-1.86-.09-3.73-.22-5.59-.75-10.64-1.65-21.27-2.19-31.93a24.23,24.23,0,0,1,1.18-9.65,29.14,29.14,0,0,0,1.19-18c-1.16-4.68-3.3-8.77-8.45-10.38A3.92,3.92,0,0,1,366.38,67c-1.34-2.87-3-5.76-3.49-8.81-.51-3.23,0-6.67.41-10,.51-3.91,1.59-7.74,2.15-11.65.89-6.31,5.43-10.09,9.63-14,4-3.75,8.43-7.07,12.57-10.68a50.2,50.2,0,0,0,4.42-4.68c.9-1,1-2-.45-2.68a25.2,25.2,0,0,0-12.89-2.55,6.15,6.15,0,0,0-3.54,1.77Q365.35,13,355.67,22.56c-3.11,3.06-6.05,6.3-9.17,9.35-3.88,3.79-8.9,5.65-13.86,7.31-5.42,1.81-11.08,3-16.65,4.31-4.9,1.2-9.64,2-14.46-1-3.12-1.92-6.87-.77-9,2-1.63,2.1-3,4.41-4.48,6.65-2.92,4.46-5.66,9.06-8.78,13.38-3.29,4.58-7,8.83-10.38,13.37a50.28,50.28,0,0,0-5.1,8.35c-3.86,8.28-7.23,16.81-11.26,25-3.09,6.28-6.89,12.21-10.38,18.3-.11.19-.25.37-.37.56a109,109,0,0,1-17,19.68C219.19,155,213.35,160,206.34,163c-7.21,3-14.87,5.27-22.78,4.85-5-.26-10-1.69-14.88-2.88-7.7-1.86-15.27-2.5-22.81.73C140.51,168,135,170,129.63,172.19a3.37,3.37,0,0,0-1.16,1c-2.59,3.14-6.31,3.13-9.77,3.08-6.09-.1-11.77-2.31-17.55-4.07-1.78-.55-4.08,0-6,.55-2.86.83-4.16,3.37-5.83,5.7-4.11,5.72-8.75,11.07-13.2,16.54-2.35,2.89-5,5.56-7.06,8.63-5,7.46-9.92,15-14.53,22.7-4.26,7.14-8.2,14.49-12,21.86-4.48,8.57-5.25,17.94-5.17,27.4a9.72,9.72,0,0,0,3.5,7.69,8.75,8.75,0,0,0,2.75,1,9.83,9.83,0,0,0,.71-2.62c0-1.48-.45-3-.47-4.44a7.7,7.7,0,0,1,.59-3.23c1-2.23,3.13-2.34,4.67-.4,2,2.57,1.91,5.64,1.72,8.57-.32,4.75.6,8.79,4.6,11.83,2.42,1.84,4.69,3.53,8,1.92,5-2.46,10-4.76,15-7.16a3.79,3.79,0,0,0,1.42-1.07c.41-.57,1-1.46.84-1.94-1.59-4.11,0-8.73-2.49-12.8-2.67-4.39-.55-8.53,2.13-12.18,1.08-1.47,3-2.28,4.2-3.72,2.78-3.49,5.4-7.11,7.94-10.78a84.36,84.36,0,0,0,4.74-7.77c2.47-4.56,4.68-9.27,7.23-13.78a11.27,11.27,0,0,1,3.53-3.29,1.69,1.69,0,0,1,2.74.84,2.47,2.47,0,0,0,1.52,1.19c2.88.63,5.14-.74,7-2.71,3-3.22,5.87-6.51,8.56-10,2.91-3.72,5.38-4.45,9.3-2.07a5.53,5.53,0,0,0,4.91.34c3.68-1.15,7.41-2.13,11.1-3.25a9.12,9.12,0,0,0,3.26-1.41A25.94,25.94,0,0,1,167.86,199c4.69-1,7.21.18,9.69,4.35q2.38,4,4.93,7.94a4,4,0,0,0,5.81,1.44c1.41-.77,2.61-1.9,3.94-2.79a74,74,0,0,1,18.18-9.29c2.69-.88,5.35-1.86,8-2.79a58.55,58.55,0,0,1,5.81-2,2.55,2.55,0,0,1,3.39,1.72,2.5,2.5,0,0,0,1.61,1.32,11,11,0,0,0,8.93-1.54c4.48-3.05,9.15-5.22,14.79-4.48,2.29.31,4.63.18,6.92.46s3.61-.49,4.82-2.68c1.07-1.93,3.18-3.4,5.1-4.66.74-.48,2.45-.15,3.27.43.46.32.27,2.06-.11,2.94-.9,2.08-2.09,4-3.25,6.18,3,.16,5.58-.1,7.45-2.58a12.22,12.22,0,0,1,2.19-1.83,14.8,14.8,0,0,1,.56,3.31,4.48,4.48,0,0,1-1.13,2.1c-1.47,1.89-3.65,2.16-5.8,2.25-5.07.22-10.14.36-15.21.46-3,.05-5.54,1-7.3,3.57q-5,7.38-10.05,14.74a42.63,42.63,0,0,1-4,5.33c-.63.67-2,.63-3,.92,0-1.17-.31-2.52.16-3.47a18.17,18.17,0,0,1,3-3.83c1.17-1.31,1.16-2.38-.48-3.19-2.18-1.07-4.28-2.54-6.59-3.06-6.38-1.43-12.83-2.63-19.3-3.59-4.45-.66-8.48,1.11-11.77,3.94-4.72,4.06-9.07,8.55-13.68,12.74-4.27,3.88-6.84,8.14-6.27,14.38a55.9,55.9,0,0,1-2.69,23.62,5.83,5.83,0,0,0,.06,3.23,29.7,29.7,0,0,0,1.94,5.19c1,2,1.81,4.19,3.33,5.65a6.43,6.43,0,0,1,1.88,7.07c-1.35,4.8-3,9.48-6.32,13.32,1.24,1.86,2.77,2.36,4.7,1.54l4.73-2c4.25-1.78,6.91-.48,7.92,4.07,1.21,5.43.6,10.83-.77,16.15a11.55,11.55,0,0,1-1.64,2.76,15.46,15.46,0,0,1-2.49-1.67c-2.75-2.73-4.36-3.1-8.11-1.65-3.39,1.3-5.49.33-6.78-3.07-.64-1.71-2.18-1.37-3.42-1.14-.36.07-.67,1.33-.69,2.05-.09,2.71.46,5.54-.17,8.1-1,3.94-4.62,6-7.47,8.55-.91.81-2.42,1-2.84-.7-1.67-7-2.23-13.94,3-19.88,4-4.51,5.84-10,7.63-15.57s1.23-11.49.88-17.31c-.27-4.44-2.62-7.62-5.5-10.6a6.12,6.12,0,0,0-5.31-1.84c-2.07.23-4.13.59-6.21.75a32.6,32.6,0,0,1-3.69-.14c.86-.91,1.68-1.87,2.58-2.72,2.09-2,4.41-3.75,6.29-5.91,1.65-1.88.9-3.64-1.57-3.94a56.21,56.21,0,0,0-6.23-.08c-3.22,0-4.66,1-5.83,4.66,1,1.78,2.15,3,2.29,4.29.19,1.82-1.6,2.42-3.06,3.08s-3.41,1.2-4.44,2.4c-3.67,4.27-7.13,8.73-10.5,13.24-1.59,2.12-2.79,4.52-4.28,7a32.69,32.69,0,0,0,3.19,2.05c2.14,1,4.37,1.9,6.51,3,.57.28.91,1,1.64,1.85-2.86,0-5,0-7.16,0-1.64,0-3.52-.29-4.86.4a25.34,25.34,0,0,0-10.69,11.3,12.26,12.26,0,0,1-8.27,6.82c-2.81.7-3.22,1.34-2.43,4.24s1.52,5.72,2.35,8.84c2.16.22,3.19,1.93,3.64,4.13a40.25,40.25,0,0,1-.37,16.43c-.68,3.22-1.5,3.72-4.55,3.42-.65.73-1.23,1.91-1.77,1.89-3.16-.08-6.51.11-9.39-.92-1.51-.55-2.63-3.28-3.16-5.24-.94-3.43-1.28-7-1.9-10.54-.77-4.34-3.49-6.75-8-7.15-.84,3.39-2.1,4.72-4.34,4.08-1.33-.38-2.45-1.47-3.66-2.25a29.57,29.57,0,0,0-4.42-2.8c-2.38-1-5-1.53-7.38-2.41-1.86-.67-3.6-1.94-5.55-.2a1.52,1.52,0,0,1-1.29.17c-2.07-.79-3.42.12-4.88,1.53a3.66,3.66,0,0,1-3.05.42c-.46-.13-.77-1.6-.75-2.45.08-3-.47-4.08-3.42-5.3a7.42,7.42,0,0,1-5-6.53,4.29,4.29,0,0,0-.51-1.93c-2-3.08-1.65-6.38-1.05-9.73.31-1.68.67-3.36.93-5.06.35-2.27,0-4.31-2-5.76-1.63-1.18-2.82-.82-3.28,1.16-.35,1.52-.23,3.19-.79,4.61-3,7.52-5.74,15.17-9.35,22.39A22,22,0,0,0,18,326.3q-.32,22.49-.41,45c0,2.64.34,5.28.52,7.92l.55.21a22.31,22.31,0,0,0,2-2.17c1.3-1.9,3-2.16,4.55-.52,5,5.45,10.26,10.74,13.88,17.35.76-.14,1.56-.55,2-.31,1,.5,2.49,1.2,2.69,2.06.43,1.95-.69,3.57-2.4,4.65a3.35,3.35,0,0,1-4.31-.54,51.35,51.35,0,0,1-3.72-3.8c-4-4.44-10.42-6.1-13.33-11.76,0-.08-.27-.07-1-.22a37.25,37.25,0,0,0-1.5,5.83c-.73,7.94-1.24,15.91-1.89,23.86-.51,6.08-.54,12.28-1.8,18.21A119.94,119.94,0,0,0,11.4,463a112,112,0,0,1-1,21.19c-.24,1.74-.4,3.49-.62,5.44,1.84,0,3.39,0,4.95,0,1.79.05,2.85-.71,2.93-2.57.28-6.62.59-13.23.81-19.85.05-1.78-.35-3.58-.23-5.36.14-2.19,1.79-3.23,3.22-2.13,4.59,3.5,9.23,6.94,13.59,10.7,3,2.56,4.32,6.19,4.77,10.08.37,3.18.58,6.38.93,9.57.11,1,.13,2.37.75,2.95,2.51,2.34,2.88,5.23,2.77,8.35,0,.49,0,1.2.24,1.42,2.79,2.26,2.93,5.76,4.29,8.68,1.58,3.39,1.05,5.7-2,8.08-4.33,3.33-8,7.46-12.34,10.83-2.12,1.67-4.52,2.74-5.88,5.39-1,2-3.73,1.54-4.28-.76-.86-3.68-1.32-7.45-1.88-11.19-1.13-7.58-2.15-15.18-3.36-22.75A19.88,19.88,0,0,0,17.35,496.86Zm138.2-234.38a11.62,11.62,0,0,1,2.63-.29c2.32.18,5-.06,6.88,1a13.43,13.43,0,0,1,7.2,10.45c.57,5,1.1,10.19.42,15.13-.71,5.21-2.57,10.33-4.5,15.27-1,2.46-3.15,4.46-4.88,6.59-4.29,5.28-3.24,11.19-2.44,17.8,1.72-1.34,2.95-2.25,4.12-3.24,3.46-2.94,5.08-6.52,3.76-11.1a10.25,10.25,0,0,1-.32-2.21A2.49,2.49,0,0,1,170.9,309c2.77-.37,4.25.77,5.52,4.49,1.18-.12,2.42-.23,3.65-.39,4.16-.57,8.47-1.65,11,3.82a34.52,34.52,0,0,0,1.69-16.1c-.64-4.67-2.58-5.59-6.92-3.76a21,21,0,0,1-6.53,2c-1.22.08-2.88-1.17-3.69-2.29-.46-.64,0-2.54.68-3.32,3-3.41,3.91-7.66,5.27-11.73a3.92,3.92,0,0,0-1.33-4.78c-2.35-1.81-3.39-4.45-4.2-7.2-.39-1.35-1-2.63-1.37-4a9,9,0,0,1-.57-3.6c.45-2.63,1.61-5.16,1.84-7.79.52-6.08.93-12.2.87-18.29-.05-4.81,1.27-8.87,4.82-12,6.66-5.81,12.09-13,19.85-17.62a33.32,33.32,0,0,0-4.86,2.51c-2.42,1.55-4.66,3.41-7.17,4.81-3.53,2-6.46,1.17-8.67-2.16-1.8-2.72-3.33-5.63-5.25-8.25-.94-1.3-2.44-2.94-3.79-3-4.41-.34-8.42,1.28-12.16,3.68a32.9,32.9,0,0,1-6.44,3.3c-3.13,1.13-6.42,1.83-9.62,2.8-.89.27-1.66.9-2.53,1.24-2.22.87-3.84-.47-5.4-1.69a3.29,3.29,0,0,0-5,.37c-2.29,2.44-4.39,5-6.68,7.48a62.36,62.36,0,0,1-6.64,6.47,7.54,7.54,0,0,1-4.78,1.5c-1.49-.11-2.89-1.42-4.67-2.39a25.9,25.9,0,0,0-7,12.86,9.61,9.61,0,0,0,1.22,0c6.27-.89,12.54-1.78,18.81-2.72a3,3,0,0,0,1.78-.8,56,56,0,0,0,4.53-6,4.2,4.2,0,0,0,.28-3.14c-.45-1.42.07-1.68,1.21-2.24a42.32,42.32,0,0,0,5.1-3.36,54.66,54.66,0,0,1,4.95-3.43c2.42-1.29,4-.43,4.6,2.23a10.45,10.45,0,0,1,.33,2.88c-.27,3.94-.27,7.94-1.07,11.78a56.22,56.22,0,0,1-3.89,11.77c-.66,1.46-2.72,2.7-4.39,3.18s-2.44,1-2.19,2.39a37.25,37.25,0,0,0,1.92,7.7,76.73,76.73,0,0,0,4.27,7.89l-3.42,5.17c3-3.47,6-6.6,10.7-7.67.36-.08.79-1.06.71-1.55s-.78-.77-1.24-1.11-1.44-.64-1.56-1.11c-.42-1.68,2.73-6.86,4.54-7.11a41.78,41.78,0,0,1,10-.58c4,.43,4.93,3.68,2.29,6.86C158.72,258.83,157.11,260.66,155.55,262.48ZM82.79,273.12a54.47,54.47,0,0,1,4.59,4.05,35,35,0,0,1,3.69,5,10.77,10.77,0,0,1,.85,2.77c-1,.24-2,.46-3,.74-.79.22-2.1.39-2.21.82a3.65,3.65,0,0,0,.5,2.81,3,3,0,0,0,2.51.5,17.85,17.85,0,0,0,3.17-1.61c1.34-.66,2-.1,2.5,1.24a21,21,0,0,0,1.91,4.39c2.74,4.32,10.33,6.21,14.34,3.36a28.08,28.08,0,0,0,8.93-11.45,34.12,34.12,0,0,1,3.7-6.5c3.68-4.84,7.63-9.47,11.37-14.26a2.64,2.64,0,0,0,.07-2.27c-.94-2-2.27-3.86-3.11-5.91a35.86,35.86,0,0,1-2.09-7c-.5-2.8,1.09-5.69,3.07-5.59,3.73.18,4.76-2.49,5.58-5.05a55.52,55.52,0,0,0,2.22-10,91.6,91.6,0,0,0,.58-11.6c0-2.36-1.19-2.85-3.22-1.62a19.57,19.57,0,0,0-2,1.44l-7.36,5.88c0-.12,0,.32,0,.76-.08,4.23-5,10.34-8.84,10.88-5.75.82-11.49,1.75-17.27,2.37-2.27.24-3,1.1-3,3.29-.1,4.25-.49,8.48-3,12.19-.67,1-1.21,2.12-1.9,3.36a8.63,8.63,0,0,1,1.33.4c1.1.58,2.68.95,3.17,1.87.82,1.57-.46,3-1.82,3.6-2.32,1.1-4.81,1.82-7.22,2.74-1.21.47-2.77.7-3.5,1.59A70.24,70.24,0,0,0,82.79,273.12Zm49.47,0-.21-.14c-1.79,2-3.61,3.95-5.35,6-1.39,1.63-3.32,3.17-3.87,5.08-1.1,3.78-3.24,6.83-5.49,9.84-4.29,5.75-9.56,8.16-16.29,4.71-3.72-1.91-6.54-4.61-7.48-8.91-2.58,1-4.9,3.53-7.61.76a3.84,3.84,0,0,1-.82-4.56c1.08-2.27,3.12-2.13,5.74-1.36-2.37-3.52-4.14-6.76-7.33-8.86C81.88,274.56,81,275,81.1,277a35.94,35.94,0,0,0,.68,5.76c.88,4.52.6,5.35-3.45,7.79-2.73,1.65-5.55,3.13-8.2,4.61a63,63,0,0,1,8.14.78c1.55.34,2.68.67,4.1-.4,1.78-1.34,3.82-1.11,5.68,0a4,4,0,0,1,2,4.58,7.12,7.12,0,0,0,0,1.46c5.39.57,6.55,1.7,6.35,6-.12,2.56-1,3.16-3.53,2.43-.66,2.47-1.31,4.94-2,7.41a.52.52,0,0,1-.11.19c-1.72,2.62-3.49,5.18-6.52,6.49a22.81,22.81,0,0,0-2,1.21c5.92,1.4,7.81,5.36,8.23,10.6A56.17,56.17,0,0,0,92,344.73c.28,1.13,1.07,2.75,2,3a47.66,47.66,0,0,0,7.68,1.07,1,1,0,0,0,.82-.52c.38-1.77,1.69-1.42,2.84-1.26s2.13.13,2.38-1.27c1-5.9,1.83-11.81.12-17.73-.34-1.15-.87-2-2.43-1.32-1.07.51-1.75.25-1.71-1.28a33.51,33.51,0,0,0-.48-5.91c-.25-1.61-1-3.15-1.19-4.76-.41-2.71.38-3.93,3.09-4.49a11,11,0,0,0,6.81-4.27c1.14-1.53,1.78-3.42,2.91-5,3.91-5.34,7.87-10.71,15.75-9.55a4.09,4.09,0,0,0,1-.22c-2.16-1.05-4-1.89-5.76-2.82-2.19-1.16-2.36-1.67-1-3.83,2.14-3.4,4.39-6.73,6.59-10.09C131.68,274.06,132,273.58,132.26,273.11Zm139.63-85.7c-2.57-.27-6.5,2.55-6.63,5.35-.11,2.19-1.26,2.06-2.58,2-4.25-.11-8.49-.32-12.74-.44a11.08,11.08,0,0,0-7.89,2.61c-3.37,3-7.38,3.67-11.59,3.52-1.35,0-2.66-1.06-4-1.6-.86-.35-1.87-1.1-2.6-.89-6.76,1.88-13.5,3.85-19.69,7.34,4,.19,7.92-.26,11.76.29,6.94,1,14,1.94,20.06,6,3.74,2.47,3.84,2.66,1.44,6.39-.44.67-1.08,1.21-1.58,1.84s-1,1.45-1.55,2.18l.67.56c.59-.73,1.24-1.43,1.76-2.21,3.63-5.42,7.22-10.88,10.84-16.3,1.76-2.62,3.58-5.26,6.93-5.92a70.27,70.27,0,0,1,7.92-1c2-.16,4,0,5.82,0C267.79,193.07,271.54,190.87,271.89,187.41Zm-192,136.83c4-.81,8.06-4.82,9.66-7.48a3.77,3.77,0,0,0,.41-1.24c.3-1.63.57-3.27.85-4.9.15-.67-.37-1.29-.83-1.95a8.12,8.12,0,0,1-1.2-2.11,8.74,8.74,0,0,1,0-2.4c.83.09,1.87-.11,2.44.32a11.25,11.25,0,0,1,2.15,2.74,12.1,12.1,0,0,1,.86,1.93c1.62-3.42.31-5.64-3-5.74-2.13-.06-3.09-1-2.76-3.1.24-1.44.33-2.67-1.18-3.44a4.47,4.47,0,0,0-4.43.13,6,6,0,0,1-4.09.65c-5.69-1.91-11.09.07-17.29.41C70.7,305.21,76.15,314.15,79.89,324.24Zm18.43-84.11c-2.88,4.34-5.47,8.48-8.31,12.44-1.85,2.58-3.64,5.56-6.2,7.16-3.78,2.36-4.85,5.66-5.18,9.5-.1,1.23.73,2.55,1.13,3.82l.95.14c1.38-2.13,2.86-4.21,4.14-6.41a7.3,7.3,0,0,1,5.47-3.64,37.86,37.86,0,0,0,7.24-2.63,1.88,1.88,0,0,0,.8-1.63c-.06-.38-1-.77-1.53-.87-3-.53-3.65-1.57-2.07-4.22C97.22,249.69,99.12,245.49,98.32,240.13ZM216.84,747.66l.71.14c2.54-2.65,3.29-6.18,1.15-8.49C218,742.39,217.43,745,216.84,747.66Z"/><path d="M581.26,906.34c-10.51-6.36-12.35-16.9-13.44-27.8-.06-.66,0-1.34,0-2,0,0-.07-.1-.3-.38-1.08,2.41-2.69,4.38-1.38,7.27.81,1.79-.8,2.49-2.21,2.29a104.73,104.73,0,0,1-12.23-2.2c-4.48-1.19-8.61-3.5-13.41-3.78-5-.29-9.62.42-13.6,3.65-4.88,4-9.73,8-14.6,12-.63.51-1.29,1-2,1.5-5.52-4.18-11-8.21-16.35-12.43-4.41-3.48-8.55-7.31-13-10.74a81.91,81.91,0,0,0-8.33-5.13c-4.21-2.47-8.31-5.17-12.69-7.28a88.65,88.65,0,0,0-13-4.93c-8.46-2.51-10.89-10.32-9.38-17.3.9-4.14,5.24-7,8.79-4.7a3.54,3.54,0,0,0,2.36.43c1.63-.34,3.2-1,4.79-1.45a25.79,25.79,0,0,0-1.7-4.15c-2.78-4.37-6.37-8.26-7.68-13.48a12.67,12.67,0,0,1,1.36-9.77,32.92,32.92,0,0,1,5.69-7.75,21.1,21.1,0,0,1,3.86-3.28,32.57,32.57,0,0,1,23.57-4.35c4.47.88,8.05,4,11.3,7.21a19.48,19.48,0,0,1,3.16,3.71c1.05,1.74,1.67,3.72,2.62,5.52,1.19,2.27,2.11,4.88,3.88,6.58a61.84,61.84,0,0,0,15.21,10.81c2.23,1.12,4.41,2.35,6.68,3.38a19,19,0,0,0,3.42.85c.55-3.4,1-3.81,4.2-4.39,5.69-1,7.13-2.55,7.79-8.28a31.26,31.26,0,0,1,.69-4.42c.62-2.33,2.31-3.1,4.46-2a20.65,20.65,0,0,1,3.23,2.58,72.05,72.05,0,0,0,6.47,5,12,12,0,0,0-2.15-9.77c-1.91-2.77-4.31-5.2-6.71-8,2.3-1.83,4.73-3.86,7.26-5.76a5.69,5.69,0,0,1,6.91-.46c2.86,1.89,5,1.08,7-1.23,1.5-1.74,2.89-1.73,4.94-.47,3.08,1.89,5.74,3.88,7,7.48.16.47,1.8.8,2.65.63a12.28,12.28,0,0,1,8.88,1.19c1.33.78,2.24,2.26,3.36,3.4.93,1,1.75,2.38,2.89,2.73,4.32,1.32,8.75,2.3,13.86,3.58-.7-2.5-1.2-4.28-1.74-6.17-3.38,4-9.25,4.14-12.13.46a5.41,5.41,0,0,1,2.42-8.53c3.29-1.21,6.27-.24,9,1.72l2.6,1.84c-.19-1.44-.32-2.33-.44-3.23-.45-3.22.67-5.19,3.53-6.71,3.28-1.74,6.37-3.86,9.76-5.34a9.32,9.32,0,0,1,5.65-.37c2.79.72,5-.37,4.67-3.28a62.34,62.34,0,0,0-1.71-8.05c-.94-4-.09-6.15,3.44-7.64,1-.43,2.82-.49,3.52.12,5.89,5.17,13.18,6.09,20.47,7.18a31.86,31.86,0,0,1,6.93,1.67,22.51,22.51,0,0,1,12.77,12.33c1.51,3.59,1.73,7.57-.55,11.17-1.65,2.61-7.75,4.09-10.45,2.62a7.88,7.88,0,0,0-2.47-1c-5.06-.77-10.11-1.82-15.19-2.09-6.61-.36-11.52,2.63-14.32,8.83a43.25,43.25,0,0,1-3.6,6.67,10.8,10.8,0,0,1-14.7,3.06,23.14,23.14,0,0,0-3.06-1.7,23,23,0,0,1,4.79,11.62c.33,2.55-.71,4.22-2.71,5.9a44.66,44.66,0,0,0-6.9,7.5,71.69,71.69,0,0,0-5.65,9c-1.33,2.46-2.15,5.18-3.35,7.71a23.65,23.65,0,0,1-3.26,5.8c-7.39,8.17-8.51,17.7-6.67,28,.71,4,1.34,7.94,1.75,11.94.15,1.54-.42,3.16-.66,4.74ZM542.77,799.85a21.09,21.09,0,0,1,8.68,14.23,5.44,5.44,0,0,1-.86,4.06c-1.27,1.38-2.82,0-3.93-.87-2.15-1.7-4.1-3.65-6.21-5.41A4.32,4.32,0,0,0,538,810.7c-.45,0-1.06,1.24-1.26,2a43.48,43.48,0,0,0-.69,4.41c-.46,3.24-1.57,6.13-4.79,7.55a42.75,42.75,0,0,1-5,1.62c-.91.27-1.89.26-1.74,1.76.17,1.71-1.07,2.19-2.5,2a11.3,11.3,0,0,1-3.66-.95c-4.44-2.34-9-4.6-13.17-7.33a57.43,57.43,0,0,1-9.46-7.71,14.18,14.18,0,0,1-3.61-6.49,13.36,13.36,0,0,0-3.73-6.67c-.88-.9-1.88-1.7-2.74-2.63-2.62-2.85-5.6-5.23-9.51-5.76a53.63,53.63,0,0,0-9.14-.28A25.39,25.39,0,0,0,446.6,803a20.71,20.71,0,0,0-2.09,4.28c-.62,1.47-1.54,3-1.6,4.49-.16,3.94,1.68,7.31,3.84,10.49,1.88,2.76,3.87,5.46,5.59,8.32,1.55,2.56,1,3.93-1.84,5a9.56,9.56,0,0,1-7.6,0c-2.21-1-3.86-.41-5.18,1.61-2.54,3.88-1.09,12.28,2.75,14.88a30,30,0,0,0,6,3.1c2.56,1,5.4,1.33,7.85,2.52,6.36,3.09,12.91,5.86,18.44,10.5,2.2,1.84,5.06,2.85,7.37,4.57,3.15,2.34,6,5.09,9.1,7.49,5.85,4.54,11.79,9,17.74,13.4a2,2,0,0,0,1.91.07c2.46-1.9,4.77-4,7.23-5.92,3.57-2.77,6.89-6.17,10.92-8,7.14-3.23,14.62-1.83,21.83.6,2.43.82,4.69,2.2,7.16,2.84a73.83,73.83,0,0,0,8.51,1.26c-1.37-5.1,1.29-8.48,3.14-12.07.23-.44,1-.58,1.59-.86a6.32,6.32,0,0,1,.64,2c-.09,1.93-.65,3.88-.51,5.77.64,8.22,2.51,16,8.32,22.35a8.87,8.87,0,0,0,8.46,3.17,17.18,17.18,0,0,0,0-2.28c-.64-4.72-1.29-9.44-2-14.16-1.51-10-.18-19.27,6.79-27.22a26.25,26.25,0,0,0,3.42-6c1.09-2.26,1.79-4.72,3-6.92A74.51,74.51,0,0,1,603,839c2.5-3.36,4.79-7,8.45-9.37a4,4,0,0,0,1.48-2.93,18.51,18.51,0,0,0-3.68-10.35,13.42,13.42,0,0,1-1.76-2.56c-.25-.65.09-1.52.16-2.3a7.68,7.68,0,0,1,2.15.48c1.7.93,3.24,2.14,5,3a8.51,8.51,0,0,0,10.84-2.51,52.56,52.56,0,0,0,3.94-7c2.8-5.72,6.86-9.64,13.6-9.85a38,38,0,0,1,6,.11c5.16.67,10.54.2,15.23,3.37,2,1.36,8.31-1.45,8.54-3.86.28-2.88.56-6.25-.63-8.69a21.36,21.36,0,0,0-14-11.78,42.58,42.58,0,0,0-5.72-1c-7-.83-13.88-1.79-19.24-7.08a2.7,2.7,0,0,0-2.4-.11c-2.81,1.33-3.34,2.76-2.51,5.8a46.81,46.81,0,0,1,1.41,5.63c1,7.28-1.52,8.55-7.46,7.81a11.08,11.08,0,0,0-5.87,1.32c-2.9,1.43-5.52,3.42-8.33,5.05a3,3,0,0,0-1.67,3.5c.42,2.21.7,4.44,1.09,6.94-2.94-1.6-5.65-2.85-8.12-4.48-4.11-2.71-7.06.31-7.84,3.46a2.18,2.18,0,0,0,.47,1.62,6.28,6.28,0,0,0,9.51.59c1.58-1.47,2.84-1.27,3.6.71a34.62,34.62,0,0,1,1.36,4.7c.33,1.46-.26,2.48-1.87,2.14-4.87-1-9.74-2-14.53-3.36a4.92,4.92,0,0,1-2.94-2.78,5.07,5.07,0,0,0-4-3.75,24.57,24.57,0,0,0-7-.21c-2.22.24-3.75-.35-4.41-2.41a9.18,9.18,0,0,0-6-5.88,3.83,3.83,0,0,0-3.34.51c-2.65,2.7-5.34,2.92-8.45,1a4.43,4.43,0,0,0-5.42.42C546.77,796.47,544.93,798,542.77,799.85Z"/><path d="M666.54,606.1c-1.8,1.81-3.54,3.65-5.41,5.35a2.2,2.2,0,0,1-1.89.09c-3.26-1.35-6.36-1.71-9.48.49-1.25.88-2.92,1.16-4.26,1.94-4.6,2.69-9.18,5.42-13.68,8.26-3.21,2-4.54,5.49-5.92,8.74-2.32,5.41-4.25,11-4.39,17a15,15,0,0,0,1.6,6.78,23,23,0,0,0,4.68,5.89c1.64,1.59,3.62,2.89,6.24,2.22a2.49,2.49,0,0,1,2,.47,13.55,13.55,0,0,0,11.78,4.36,1.89,1.89,0,0,1,1.47.85c1.13,2.14,1.92,4.49,3.22,6.51,5.2,8.09,7.3,17,7.5,26.5.09,4.72-2.94,7.59-6.4,10.08-6.14,4.41-13.07,6.12-20.56,6.12a53.35,53.35,0,0,0-8.46.7c-9.67,1.57-15,7.73-17.4,16.87a43.06,43.06,0,0,0-.85,4.39c-.45,3,0,3.53,2.87,4.1.66.12,1.31.27,2,.42,4.45,1,5.79,2.45,6.58,7s-.65,7.87-4.94,9.84c-2.14,1-1.34,2.43-.91,3.71,1.2,3.6,2.63,7.12,3.88,10.71,1,2.79,1.52,5.49-.4,8.3-1.62,2.37-3.62,3.82-6.38,3.82a9.2,9.2,0,0,0-7.21,3.47,9.74,9.74,0,0,1-7.7,3.82c-3.93-.06-7.85-.45-11.78-.69l.52-.83c-.68-1-1.16-2.43-2.07-2.78a30.54,30.54,0,0,0-8.29-2.24,11.67,11.67,0,0,1-8.65-4.34,4.11,4.11,0,0,0-.57-.67c-4.56-3.68-9-7.47-13.72-11-3.56-2.65-7.41-4.91-11.12-7.36-1.28-.85-2.68-2.09-1.83-3.56.52-.92,2.34-1.55,3.57-1.54,5.39,0,10.61,1,15.22,4.12a18.06,18.06,0,0,0,4.65,2.12c-1.49-2.06-3-4-5.56-4.87a9.28,9.28,0,0,1-5.36-4.76,55.91,55.91,0,0,1-3.32-6.78c-.77-2.23-.08-2.71,2.2-3.27a63.22,63.22,0,0,0,6.36-2.25c-2.82-.77-5.32-1.33-7.74-2.16-4.34-1.49-5.15-4.31-2.65-8.15a9.11,9.11,0,0,0,.83-3s-.94-.46-1.08-.33c-.81.79-2,1.62-2.15,2.59-.24,1.51-.9,1.81-2.07,1.48q-10.6-2.93-21.16-6c-7.39-2.13-14.76-4.47-22.57-3.81-1.79.15-3.5,1.35-5.23,2.1-2,.85-3.95,2.38-6,2.47-3.71.17-9.32-3.53-9.95-9.71-.14-1.4-.3-2.8-.46-4.21l-2.19.18c-.69-2.77.62-4.08,4-4-.89-4.76-3.29-8.73-6.11-12.48-2.05-2.73-4.32-5.3-6.37-8-1.65-2.22-1.64-3.12-.7-5.74a26,26,0,0,0-3,2.35,2.17,2.17,0,0,1-3.17.34,25.7,25.7,0,0,1-3.75-3.77c-1.71-2.11-1.47-4.14.68-5.84a47.52,47.52,0,0,1,4.11-2.68c1.93-1.22,3.92-2.36,5.79-3.66,4.56-3.18,5.07-8,3.84-12.64-1.44-5.42-3.75-10.62-5.9-15.83-1.1-2.68-3.54-4.06-6.24-4.92-5.11-1.63-6.27-6.06-2.4-9.77a42.71,42.71,0,0,1,5.88-4.31c3.36-2.24,4.06-4.18,2.12-7.71a40,40,0,0,0-9.09-11.48c-3.65-3.11-7.9-4.53-12.29-5.93a89,89,0,0,1-8.45-3.23c-2-.88-2.08-2.2-.5-3.8,2.9-2.93,6.69-3.27,10.46-3.71-3.89-7.81-9.78-12.72-18.73-13.47a3.62,3.62,0,0,1-2.7-1.54c-.26-.7.48-2.19,1.22-2.77a15.19,15.19,0,0,1,4.9-2.76,26.24,26.24,0,0,1,14.36-.08,5.7,5.7,0,0,1,2.46,1c2.59,2.56,4.9,2,7.57,0a43.33,43.33,0,0,1,6.67-3.63c3.59-1.81,6.83-.88,9.75,1.53,2.61,2.15,2.16,4.7-1,6-.86.37-1.77.65-2.66,1l.09.61a8.35,8.35,0,0,0,1.74-.15c3.06-.9,6.13-1.79,9.15-2.81,5.84-2,11.34-4.62,15.94-8.85,1.15-1.06,2.35-2.08,3.51-3.12a5.28,5.28,0,0,0,1.58-5.7c-.59-2.15-1.35-4.26-2-6.4a10.43,10.43,0,0,1-.59-3c.05-2.24,1.53-3,3.45-1.86.84.48,1.75.82,2.58,1.3,1.49.84,2.61.28,3.85-.66,1.92-1.46,3.83-3.14,6-4,5.9-2.28,7.62-7.43,7-12.31a37.16,37.16,0,0,0-1.23-6.11,7.6,7.6,0,0,0-4.79-5c-2.41-.89-4.9-1.53-7.34-2.33-4.38-1.43-8.87-2.62-13.08-4.45-2.65-1.15-4.91-3.24-7.28-5a3,3,0,0,1-1.28-1.76c-.13-1.63-.47-3.62.29-4.83.55-.87,2.91-1.27,4.16-.89,3.4,1,6.6,2.7,10,3.9a59.53,59.53,0,0,0,8.63,2.52c8.62,1.68,17.27,3.22,25.93,4.69A86.26,86.26,0,0,0,539.54,509c3.22.15,5.82-1.87,8.62-3.18a28,28,0,0,1,7.05-2.5c2.88-.49,4.17.8,4.46,3.67a13,13,0,0,1-3.47,10.24,5.22,5.22,0,0,0-1.22,5.61,30.64,30.64,0,0,1,.79,7.9,3.22,3.22,0,0,1-3.11,3.28c-1.78.19-3.48.38-5-1.5s-3.63-2.91-5.79-4.13c4.44,8.27,8.88,16.5,11.1,25.66-5.7,1.67-11.59,1-14.71-1.81a34.53,34.53,0,0,0-2.38,3.61,2.19,2.19,0,0,0,.11,2c.33.37,1.38.35,2,.14,2.21-.76,4.32-1.9,6.57-2.48,4.2-1.08,6.39-.07,8.43,3.75,1.18,2.22,2,4.63,3.16,6.87.35.69,1.37,1,1.83,1.67a5,5,0,0,1,1.08,2.61,26.9,26.9,0,0,1-.72,4.44c1.42.66,3,.94,3.77,1.9s.24,2.43,0,3.31c1-1.55,2-3,2.79-4.65a9.68,9.68,0,0,0,1.08-3.74c.11-3.13,0-6.27-.12-9.4-.25-8.39,4-13.87,11.24-17.4,3.07-1.5,3.32-.71,1.81-4.69a138.18,138.18,0,0,1-4.53-13.51c-.89-3.34-.65-6.77,2.66-9,3.12-2.1,7.44-1.77,10.72.58,2.2,1.58,2.48,4,2.83,6.33.43,3,.35,6,1.2,8.84,1.09,3.58,2.93,6.93,4.36,10.4.85,2,1.56,4.17,2.59,6.21-.73-3.19-1.22-6.45-2.23-9.55a84.19,84.19,0,0,1-3.31-17.3,34.67,34.67,0,0,0-1.74-7.8c-.34-1-1.94-2.26-2.85-2.17-3.79.38-7.53,1.25-11.29,1.9-2.56.45-5.12.9-7.7,1.22a1.82,1.82,0,0,1-1.39-.84c-2.33-4-2.08-7.86,1.14-11.22a175.08,175.08,0,0,1,12.92-12.5c7.2-6.09,14.78-11.72,22.08-17.67a122.77,122.77,0,0,1,21.43-14.56c2.45-1.26,5.15-1.75,7.74.4,1.08.89,2.7,1.17,4.12,1.61,3,.94,6.06,1.62,9,2.73,4.55,1.73,9,3.74,13.49,5.6a7.1,7.1,0,0,0,2.55.75c3.88,0,6.73,2,9.3,4.59q2.75,2.76,5.52,5.51c.21.21.45.52.7.53,2.81.13,2.5,2.3,3.07,4.19,1.38,4.57,1.3,8.77-1.57,12.77a2.28,2.28,0,0,0,.19,2c1,1.57.78,2.62-1,2.55-3.13-.11-4.07,1.61-4.91,4.22-1.32,4.09-3.25,8-4.64,12.07a7,7,0,0,0,.05,4.43c1.76,4.57,4.13,8.93,5.69,13.57a67.92,67.92,0,0,1,2.88,12.76,91.94,91.94,0,0,0,3.16,13.43c2.39,8.29,4.15,16.76,6.18,25.16,1.7,7,3.44,14,5.1,21a34.17,34.17,0,0,1,.6,4.65c.13,1.36.28,2.75-1.73,3-.4,0-.82.61-1.1,1a14.31,14.31,0,0,1-13.38,5.8c-3.58-.64-6.26-2.56-7.36-6.06s-1.83-7-2.72-10.56C666.66,606.79,666.57,606.22,666.54,606.1ZM560.12,577.68c-2.53-.35-3.39-1.41-3.08-4.27.08-.81.4-1.61.4-2.41a3.53,3.53,0,0,0-.58-1.72c-1.24-2-3-3.76-3.74-5.9-2.26-6-4-7.12-10.24-5.44-1.21.33-2.36.9-3.57,1.28a9.74,9.74,0,0,1-2.59.55c-1.73.07-3-.94-2.46-2.6a18.85,18.85,0,0,1,2.74-5.4c.83-1.2,2.09-1.18,3.23,0a3.53,3.53,0,0,0,2,1.17c2.83.14,5.67.06,9.34.06-2.51-5.62-4.68-10.65-7-15.6-1.45-3.08-3.18-6-4.68-9.09-.27-.55,0-1.36,0-2.05.7,0,1.58-.18,2.08.16,2.43,1.64,4.68,3.56,7.16,5.12a5.65,5.65,0,0,0,3.59.75c.64-.1,1.53-1.48,1.52-2.27a25.8,25.8,0,0,0-.83-6.8c-.75-2.53-.64-4.56,1.22-6.58a11.88,11.88,0,0,0,3.39-9.36c-.19-2.19-.82-3-2.95-2.43a20.07,20.07,0,0,0-6.69,2.81,14.55,14.55,0,0,1-7.8,2.78,53.55,53.55,0,0,1-19.3-2.5c-5.81-1.72-12-2.09-18-3.31a106.77,106.77,0,0,1-11.79-3.17c-2.35-.77-4.45-2.28-6.78-3.12-1-.36-2.35.14-3.53.25a41.87,41.87,0,0,0,.87,4.18c.15.49.79.91,1.29,1.2,3.25,1.89,6.38,4.14,9.84,5.51,3.78,1.49,7.9,2.1,11.83,3.23A23.92,23.92,0,0,1,510.8,515c4.24,2.56,5.39,6.93,5.85,11.46.61,6-1.24,11.86-8,14.4a12.29,12.29,0,0,0-3.67,2.35c-2.87,2.54-5.8,3.91-9.41,1.42a9.55,9.55,0,0,0-2.37-.66c.52,1.66.8,2.78,1.22,3.84,2.2,5.52,3.5,10.57-2.39,15.14-5.48,4.24-10.79,8.47-17.64,10.29a92.12,92.12,0,0,0-9.74,3.15c-1.52.59-2.38.42-3.11-1s-.15-2.42,1.21-3c.75-.33,1.57-.49,2.31-.82,1.45-.65,1.79-2,.6-3-2-1.71-4.37-3.21-7.13-2.08a30.84,30.84,0,0,0-6.73,3.76c-3.13,2.34-6.33,2.8-9.9.9a17,17,0,0,0-3.52-1.75,22,22,0,0,0-12.37.16c-2,.64-4.39,1.3-5.27,3.82a5.62,5.62,0,0,0,.77.41,2.64,2.64,0,0,0,.87.17c5.77-.2,10.24,2.69,14.32,6.26,1.28,1.13,2,2.84,3.14,4.19s2.18,2.36,3.3,3.51c.44.45.94.82,1.41,1.23a8.69,8.69,0,0,1-1.95,1.12c-3,.77-6,1.36-9,2.18a14.57,14.57,0,0,0-3,1.61l.11.67c3.45,1.24,6.87,2.6,10.36,3.7,5.25,1.63,10.3,3.65,13.85,8a85.05,85.05,0,0,1,7.25,10.35c1.78,3,1.18,5.61-1.41,8a45.61,45.61,0,0,1-5.37,3.81c-2,1.37-3.68,3-3.29,5.63s2.72,2.59,4.55,3.32a9.12,9.12,0,0,1,3.49,2.09c4.81,5.47,7,12.24,8.51,19.15,1.21,5.54.69,11-4.53,14.66a68.42,68.42,0,0,1-7.14,4.36c-4.83,2.62-5,4.51-.65,7.93a2.2,2.2,0,0,0,3,.08,18.14,18.14,0,0,1,4.85-2c.58-.17,1.4.51,2.11.8-.4.57-.66,1.35-1.21,1.68-1.78,1.09-1.55,2.35-.49,3.72,2,2.58,4,5.15,6.1,7.67a33.33,33.33,0,0,1,6.58,12.53c.47,1.72.64,3.33-1.64,3.59.14,1.7.21,3.19.38,4.67.41,3.69,1.82,6.71,5.46,8.32,3.39,1.5,6.1.46,8.84-1.75a8.65,8.65,0,0,1,4.89-1.81c3.85,0,7.85-.14,11.55.78,7.91,1.95,15.65,4.57,23.49,6.82,3.12.9,6.31,1.54,8.88,2.16,1.48-1.68,2.45-3,3.62-4.05,1-.89,2-.83,3,.38,1.53,2,.66,3.62-.39,5.32-2.2,3.56-1.55,5.18,2.52,6.19a11.25,11.25,0,0,0,1.54.26l10.8,1,.29.67c-2.11,1-4.19,2.11-6.34,3s-4.56,1.73-7.21,2.72c1.91,4.34,3.18,9.12,8.19,11.22a15.86,15.86,0,0,1,7.19,6.4c.3.46.45,1.47.17,1.75a2,2,0,0,1-1.8.26,44.5,44.5,0,0,1-4.89-2.19c-4.29-2.21-8.57-4.44-13.54-4.63-1.41-.06-2.83,0-4.25,0l-.2.79a48.37,48.37,0,0,0,3.88,3.17c3.33,2.21,6.91,4.07,10.07,6.49,4.82,3.7,9.53,7.59,14,11.74a10.49,10.49,0,0,0,7.26,3.14c4.34.19,8.56,1,11.34,5a3.19,3.19,0,0,0,2,1.16,61.86,61.86,0,0,0,7.81.44,7.49,7.49,0,0,0,5.44-2.53c2.64-2.75,5.65-5,9.9-5,1.17,0,2.51-1,3.52-1.89,2.91-2.45,2.37-5.45,1.17-8.55-1.37-3.54-2.71-7.09-3.92-10.69-1-3.09-.61-4.07,2.28-5.24a5.88,5.88,0,0,0,3.8-5.3c.51-4.63-1-7.24-4.63-8.21-7.63-2-7.85-2-6.26-9.88,1.72-8.47,5.95-15.24,14.69-18.09a38.26,38.26,0,0,1,7.42-1.56c6.16-.71,12.52,0,18.37-2.72,2.36-1.1,4.9-2,6.9-3.59,2.69-2.11,5.7-4.32,5.68-8.32a49.11,49.11,0,0,0-6.43-24.56c-1.25-2.19-2.45-4.41-3.79-6.54a3.13,3.13,0,0,0-1.73-1.23c-2.45-.61-5.16-.6-7.34-1.7-3.2-1.61-6.41-3.08-9.73-4.43-2.47-1-4.37-3.64-6.28-5.77a12.7,12.7,0,0,1-3.18-11.84,129.67,129.67,0,0,1,4.08-14.59c1.42-3.86,3-7.85,6.78-10.27s7.74-4.92,11.64-7.32c1-.62,2.24-.88,3.23-1.53,4.1-2.68,8.35-4.1,13.24-2.27a3,3,0,0,0,3.94-1.62c.6-1.19,1-2.48,1.69-3.63a18.47,18.47,0,0,1,1.81-2.28c.52.89,1.07,1.76,1.56,2.66.13.24.05.59.12.88,1,4.09,1.93,8.22,3.14,12.26.87,2.88,3.26,4.28,6.14,4.37A14.45,14.45,0,0,0,689,617.51c2.88-3,2.46-5.71,1.77-8.77-1.65-7.25-3.54-14.44-5.31-21.66q-2.94-11.93-5.85-23.84c-1-4.11-2.44-8.17-2.87-12.33a46.55,46.55,0,0,0-3.24-13.85c-1.84-4.3-3.63-8.63-5.55-12.9a6.86,6.86,0,0,1,0-5.81c1.69-4.05,3.52-8.07,4.8-12.25.87-2.81,2.06-4.69,4.44-4.66.81-2.13,1.2-3.95,2.12-5.44,2.31-3.77.89-7.46.27-11.26-.34-2.08-2.28-1.84-3.22-2.95-.43-.51-.92-1-1.39-1.42-3.73-3.65-7.05-7.92-12.94-8.21a7.12,7.12,0,0,1-2.12-.66c-6.78-2.55-13.56-5.14-20.35-7.67-1.74-.65-3.71-.86-5.28-1.78-4.1-2.42-7.86-1.31-11.34,1-5.29,3.52-10.47,7.22-15.54,11-6.38,4.83-12.75,9.7-18.88,14.85-6,5-11.57,10.43-17.41,15.58-2.78,2.45-3.33,5.2-2,8.6.46,1.14.95,1.56,2.1,1.31,2.48-.53,4.94-1.18,7.44-1.54a90.31,90.31,0,0,1,10.61-1.05,4.05,4.05,0,0,1,4.16,3.66c.22,1.17.66,2.3.83,3.47.68,4.72.81,9.57,2,14.14,2.29,8.66,4.46,17.31,5.4,26.22.66,6.25,1.12,12.5-.21,18.72-.78,3.6-6.89,7.39-10.24,6.12-1.46-.56-4-.79-3.75-3.12.27-2.13,2.56-1.79,4.08-1.83,4.63-.11,6.35-1.42,7.19-7,1.45-9.67-.48-19-4.09-28-1.57-3.9-4.38-7.27-4.72-11.69-.24-3-.58-5.94-1-8.88a7.39,7.39,0,0,0-1.33-3.45c-1.91-2.31-6-2.9-8.88-1.51-2.59,1.25-3.78,3.43-2.88,7a108.89,108.89,0,0,0,4.38,13.3c2.06,5.22,2.21,5.16-2.68,7.55a9.51,9.51,0,0,0-1.19.61c-5.21,3.34-8.9,7.65-8.84,14.24,0,3.2.38,6.42.21,9.61a10.21,10.21,0,0,1-1.54,5.42,8.78,8.78,0,0,0-1.85,6.09,16.17,16.17,0,0,1-.51,3.19l-1.15.1C561.82,583.2,561,580.61,560.12,577.68Zm29.1,3.55a7.64,7.64,0,0,0,8.54-.19c2.87-1.79,2.27-5,2.54-7.9C599.5,579.81,594.92,581.19,589.22,581.23Z"/><path d="M241.39,630.93l.79-.29c3.08-1.42,6.44-2.39,8.24-5.72a3.22,3.22,0,0,1,2-1.32c4-.77,8-1.54,12-2,2.1-.24,2.91,1.45,3.25,3.29,1,5.55,6.12,7.8,10.7,4.48a92.18,92.18,0,0,1,18.42-10.29A102.45,102.45,0,0,0,307,614.22c3.87-2.14,7.62-4.52,11.28-7,3-2.06,7.51-2.88,12.87-1.91.95-4.36,2.43-5.29,6.68-3.55a36.45,36.45,0,0,1,14.18,10.4c1.87,2.24,3.24,4.9,5,7.26a5.09,5.09,0,0,0,2.47,1.65,21.67,21.67,0,0,0,3.55.42,7.9,7.9,0,0,1,6.86,7.66,1.85,1.85,0,0,1-2.1,2.05c-1.83,0-2.08,1-2,2.45.16,2.08.37,4.17.4,6.25a3.26,3.26,0,0,1-2.65,3.57c-3.81,1.08-5.83,4.43-8.23,7.22a1.74,1.74,0,0,0,.24,1.69A17.9,17.9,0,0,0,358.7,654a5.33,5.33,0,0,1,3.21-5.8c2.85-1.49,5.87-2.67,8.79-4,2.62-1.22,5.23-2.45,7.77-3.81,1.34-.71,1.52-1.67.08-2.69-2-1.38-3.93-2.41-6.44-1.63-.5.16-1.13-.12-2.06-.26,1.56-1.67,2.81-3,4-4.32a3.68,3.68,0,0,0,.72-1.37c1-3.37,1-3.4,4.55-2.89-.12-.92-.22-1.79-.34-2.66-.52-3.68-.48-7.25,1.23-10.71a3.1,3.1,0,0,0-.09-2.78c-.95-1.14-1.8-2-.63-3.44s2.81-2.41,4.7-1.51a6.32,6.32,0,0,1,2.77,2.46,105.83,105.83,0,0,1,4.47,9.68c2,5,3.68,10.22,5.83,15.19a46.06,46.06,0,0,0,4.64,7.59c1.84,2.64,1.12,5-1.62,6.48-2.39,1.33-5,2.34-8,3.74,2.26,4.21,4.38,8.42,6.75,12.49,2.65,4.56,5.66,8.9,8.26,13.48,2,3.49,3.49,7.24,5.35,10.79a41.61,41.61,0,0,0,3.56,5.62,2.59,2.59,0,0,1,0,3.61,6.22,6.22,0,0,1-6.1,2.13c-.13,1.89-.39,3.72-.37,5.54.08,8.65.25,17.31.34,26a30.94,30.94,0,0,1-.31,6.25,58.61,58.61,0,0,1-2.11,6c-2.18,6.79-4.2,13.64-6.54,20.37-.51,1.47-2.14,2.54-3.2,3.83a18,18,0,0,0-2.93,3.91c-1,2.25-2.51,4-4.24,3.64-2.3-.44-3-2.22-3.19-4.29-.06-.67-.12-1.34-.17-2-.1-1.63-.93-2.21-2.32-1.9.32,4,.54,7.78,1,11.57a2.89,2.89,0,0,0,2,1.76c3.81.58,5.1,2.65,3.33,6.08a19.93,19.93,0,0,1-7,7.88,69.81,69.81,0,0,1-7.5,4.3c-2.89,1.36-5.43.1-7.36-2A29,29,0,0,1,362.74,781c-.33-2.06.87-3.7,2.57-4.85.91-.61,1.92-1.08,2.68-1.5-4-1-8.1-2-12.2-3-5.53-1.39-11.12-2.57-16.54-4.3-3-.94-5.67-2.74-8.43-4.28-3.3-1.84-6.53-3.81-10.26-6-.65,2.43-1.06,4.45-1.75,6.36a25.54,25.54,0,0,1-2,3.69c-1.25-1.05-3.48-2-3.57-3.15-.39-4.77-4.05-4.59-7.11-5.38a14.18,14.18,0,0,0-3.56-.38,5.92,5.92,0,0,1-5.8-3.74A5.62,5.62,0,0,1,298,748c2.36-2.28,5.25-4,7.93-5.93a13.83,13.83,0,0,1,1.95-.93c-1.47-2.57-2.79-5-4.28-7.42a5.78,5.78,0,0,0-5.18-2.54c-3-.07-6.06-.35-9-2.32.91,3,1.83,6,2.72,9a27.24,27.24,0,0,1,1.13,4.3c.31,2.55-.88,3.79-3.41,3.86a10.15,10.15,0,0,1-1.35,0c-4.75-.47-6.06-1.49-6.49-6.22-.46-5-.43-10.13-.64-15.19,0-1-.22-2-.33-3-4.74-.24-5.87-1.23-4.74-3.85-3-2.39-4.27-5.8-5.34-9.28-2.08-6.71-2.23-13.65-2.53-20.58,0-.74-.13-1.49-.12-2.23,0-2.19-.77-3.33-3.21-3.56-4.7-.43-9.48-5.39-10.31-10.06-.5-2.76,1-4.48,2.79-6-.82-1.12-2.07-2.11-2.19-3.22-.09-.84,1.27-1.84,2.34-3.23a24.35,24.35,0,0,0-4.08-1.15c-7.1-.73-11.3-6.61-9.65-13.47a5.26,5.26,0,0,0-.59-3.16,31.45,31.45,0,0,0-2.44-4C238.92,634.71,239,633.6,241.39,630.93ZM389.87,650.5c1.75-.76,2.92-1.2,4-1.76,2.17-1.08,4.31-2.21,6.44-3.37,1.46-.8,1.49-1.88.55-3.15-.76-1-1.46-2.05-2.18-3.08-4.37-6.27-6.18-13.63-8.89-20.62a59.68,59.68,0,0,0-4.61-9.6c-1.47-2.41-2.74-2.2-4.1-.6.39,2.09,1.35,3.93.83,5.09-1.93,4.33-1.92,8.64-1.14,13.14.35,2-.48,2.59-2.42,2.24l-1.4-.3c-.77,1.92-1.51,3.74-2.18,5.4a43.24,43.24,0,0,1,4.86,2.83c2,1.53,2.12,3.15.05,4.55a56.78,56.78,0,0,1-7.81,4.19c-3.13,1.47-6.42,2.63-9.52,4.17-.89.45-1.37,1.74-2,2.66s-1.23,2.53-1.88,2.55a6.75,6.75,0,0,1-4.2-1.28c-.63-.51-.78-2.51-.29-3.34,1.72-3,3.71-6.17,7-7.18,4-1.22,3.79-3.82,3.47-6.83a4.53,4.53,0,0,1-.05-.9c.16-1.53,0-3.27.66-4.52.48-.89,2.16-1.12,3.32-1.64-1.85-4.94-2.46-6.14-7.9-6.31a5.39,5.39,0,0,1-5.51-4.06,8,8,0,0,0-1.35-2.53,38.21,38.21,0,0,0-12.14-10.66,31.87,31.87,0,0,0-5.91-2.8c-2.22-.63-2.64,0-2.47,2.24a12.46,12.46,0,0,1,.21,2,5.45,5.45,0,0,1-.63,1.51c-.42-.23-.85-.44-1.25-.7-.73-.46-1.4-1.27-2.18-1.39-3.81-.59-7.39-.06-10.53,2.49A37.7,37.7,0,0,1,313,613a129,129,0,0,1-12.54,6.18,113,113,0,0,0-21.31,11.53,10.86,10.86,0,0,1-4.31,2c-3.19.44-7.45-2.69-8.42-5.78-1.3-4.17-1.31-4.18-5.81-3.71a21,21,0,0,0-4,.59c-1.52.46-3.3.88-4.33,1.94a26.51,26.51,0,0,1-8.12,5.77c-4,1.81-4.07,2.47-1.46,6a5,5,0,0,1,.65.9c1,2.31,3,4.26,2.1,7.23a8.63,8.63,0,0,0,7.89,11.16,5.76,5.76,0,0,1,2.19.29c1.18.63,2.76,1.31,3.15,2.34.32.88-.8,2.3-1.42,3.81-.18-.16.07.08.33.32,2.43,2.27,2.32,2.75-.25,4.92a3.94,3.94,0,0,0-1.14,2.88c.36,4.18,4.73,8.35,8.93,8.79,2.75.29,4,1.33,4.39,4,.3,2,.29,4,.54,6,.74,6,1.29,12.14,2.42,18.12a15.29,15.29,0,0,0,3.55,7c1.27,1.4,4.43,1,4.11,4.17,0,0,.12.08.19.09,3,.56,2.47,3.05,2.58,5,.27,4.69.21,9.39.44,14.09.27,5.58,1.63,5,6,5.83,1.55.28,2.5-.59,2.23-2.21s-.81-3-1.22-4.51c-.8-2.94-1.7-5.85-2.34-8.83a2.87,2.87,0,0,1,.86-2.3c.3-.27,1.47.22,2.12.59,2.13,1.21,4.25,2.3,6.82,2.26,2.84-.05,5.39.83,7,3.29,1.88,2.9,3.52,6,5.4,9.19-1.81.89-3.43,1.58-4.93,2.45a29.5,29.5,0,0,0-5.54,3.65,5.31,5.31,0,0,0-1.68,5.68c.81,2.23,2.95,2.21,4.88,2.41a4.31,4.31,0,0,1,.89,0c2.93,1,5.92,1.77,8.74,3,.82.35,1.18,1.82,1.69,2.81.62,1.2,1.18,2.44,1.76,3.66a70.84,70.84,0,0,0,3.13-9,1.44,1.44,0,0,1,2.21-1.06,18.68,18.68,0,0,1,2.27,1.26c4.18,2.53,8.22,5.34,12.58,7.52,2.6,1.29,5.7,1.57,8.55,2.38,6.06,1.7,12.09,3.5,18.16,5.16,5,1.36,9.38.41,13-3.56a16,16,0,0,1,3.63-2.91c.61-.35,1.61,0,2.44,0-.23.78-.21,1.85-.73,2.3a65.44,65.44,0,0,1-7,5.45,55.83,55.83,0,0,1-6.38,3.19c-3.58,1.73-4.49,3.34-3.15,7.06a62.54,62.54,0,0,0,4.61,10.09c1.94,3.32,4.58,4,8.08,2.51a27.34,27.34,0,0,0,11.62-9.07,9.58,9.58,0,0,0,1.4-3c.4-1.39-.1-2.19-1.73-2.36-3.42-.36-4-1.07-4.33-4.46-.3-3-.65-5.92-1.05-8.86-.18-1.35-.27-2.85,1.31-3.07a4.38,4.38,0,0,1,3.43,1.1c.76.89.82,2.46,1,3.77s.18,3.06,1.88,3c.82,0,1.94-1.41,2.3-2.4a8.51,8.51,0,0,1,4-4.89,4.83,4.83,0,0,0,2.12-2.17c1.77-4.88,3.39-9.81,5-14.75,1.07-3.24,2.08-6.51,3.08-9.77a12.5,12.5,0,0,0,.87-3.37c0-8.8-.08-17.61-.11-26.41,0-2.91,0-5.83.21-8.72.1-1.46.46-3.24,2.56-2.88s3.23-.63,4.32-1.87l-4.61-8.42c-3.36-6.12-6.68-12.26-10.11-18.35S393.54,656.87,389.87,650.5Z"/><path d="M429.85,750.82c-.46,8.55-2.59,16.73-5.37,24.8a76.82,76.82,0,0,1-8.08,16.07c-3.19,5-5,10.58-6.81,16.21-2,6.52-4.45,12.94-6.43,19.48-2.59,8.54-5,17.14-7.32,25.75a11.9,11.9,0,0,1-6.57,7.64c-1.23.63-2.23.39-3.19-.95-2.69-3.72-2.87-8.11-3.5-12.33-.8-5.32-1.45-10.63-4.11-15.43-1.73-3.12-.72-6,1.47-8.15a112,112,0,0,1,9.3-7.92c1.48-1.19,2.48-2.07.91-4.08-4.67-5.94-2-14,1.41-18.4a40.65,40.65,0,0,0,3.93-5.38,15.59,15.59,0,0,0,1.69-5.37c.21-1.55.59-2.19,2.24-2.32a6.27,6.27,0,0,0,3.64-1.34c5.61-5.32,10.18-11.46,11-19.34a32.55,32.55,0,0,1,4.86-13.69,28,28,0,0,1,2.61-3.6c1.05-1.25,2.35-1.81,4-.92C429.16,743.59,430,747,429.85,750.82ZM399.68,782.2a60,60,0,0,1-2.72,6.57c-1.09,1.93-2.79,3.51-3.86,5.44a41.69,41.69,0,0,0-3.75,8.22,8.58,8.58,0,0,0,1.65,7.82c2.48,3.22,2.25,4.42-1,7-2.89,2.3-5.84,4.57-8.52,7.12-1.71,1.64-3.24,3.8-1.88,6.37,2.93,5.52,3.82,11.52,4.66,17.59a70.19,70.19,0,0,0,2.25,9.29c.42,1.48,1.39,1.82,2.93,1.08a8.31,8.31,0,0,0,4.67-5.61c2.5-8.88,5-17.77,7.64-26.6,2.12-7,4.4-13.9,6.91-20.74,1.94-5.28,3.7-10.81,6.71-15.48a86.24,86.24,0,0,0,10.69-25.11c1.47-5.54,2.82-11.2,2-17-.2-1.5-1.39-3-2.47-4.22a2.1,2.1,0,0,0-3.48.28,53,53,0,0,0-3.58,5.35c-2,3.56-2.67,7.44-3.19,11.5-.73,5.73-3.89,10.5-7.46,15C405.57,779.05,403.07,781.66,399.68,782.2Z"/><path d="M607.3,85.12c.05-9.88,1.71-20.69,4.12-31.4.65-2.9,1.48-5.76,2.37-8.59,1-3.18,2.59-3.89,5.28-1.91,4,3,7.73,6.42,11.72,9.46a34.24,34.24,0,0,0,6.85,4.1c4.11,1.82,8.38,3.3,12.59,4.93a10.5,10.5,0,0,1,5.24,4.83c2.7,4.4,4.65,9.42,9,12.64a8.15,8.15,0,0,0,3.11,1.34c2.11.43,4.29.53,6.41.94,5,1,6.8,3.42,6.07,8.36-.69,4.64-1.74,9.23-2.31,13.89A73.76,73.76,0,0,0,677.2,115c.14,4.34-1.39,7.44-5.21,9.54-3.45,1.9-6.93,4.12-10.93,3.78a30,30,0,0,1-8.87-2.67c-7.06-3-13.25-7.47-19.45-11.93a28.68,28.68,0,0,0-6.15-3.12c-4.05-1.61-8.17-3-12.27-4.52-2.59-.93-3.61-3.22-4.63-5.42C607.56,96.11,607.15,91.22,607.3,85.12Zm1.61.12c-.17,5.41.09,10.74,2.65,15.69A7.47,7.47,0,0,0,616,105c4.34,1.45,8.66,3,12.88,4.79a32,32,0,0,1,7,3.93,99.57,99.57,0,0,0,17.76,10.83c6.3,3,12.29,2.34,18-1.63a8.6,8.6,0,0,0,4-7.91,78.11,78.11,0,0,1,.63-11.33c.61-4.94,1.67-9.83,2.31-14.77.48-3.66-.48-4.93-4-5.71-2.69-.58-5.46-.78-8.15-1.33a6.26,6.26,0,0,1-3.38-1.5,53,53,0,0,1-5.55-7.73C654.27,67.21,651.06,62,644.09,61a13.07,13.07,0,0,1-2.76-.89c-4.29-1.66-8.5-3.42-12-6.52s-7-5.91-10.52-8.86c-1.79-1.51-2.84-1.3-3.51.87A147.34,147.34,0,0,0,608.91,85.24Z"/><path d="M388,531.43c1.26-.29,2.41-.63,3.58-.8a7.44,7.44,0,0,1,1.91.2,10.86,10.86,0,0,1-.27,2.07,18.55,18.55,0,0,1-1.34,3.3,46.72,46.72,0,0,0-5.05,17.23c-.35,3-1.47,5.9-2.26,8.84-.65,2.43-2.47,3.28-4.74,3.25-3.07,0-6.13-.22-9.2-.41-.31,0-.74-.52-.85-.88-1.4-4.81-4.25-9.22-4.05-14.49a35.38,35.38,0,0,1,6-19.34,24.69,24.69,0,0,0,2.73-5.58c1.09-3,.24-5.28-2.77-6.34-3.75-1.34-4.71-4-4.54-7.48.19-4,.36-8.05.88-12,.38-2.89,1.91-3.88,4.82-3.89,2.33,0,3.49,1,4.15,3.83.51,2.17,1,4.36,1.3,6.57a27.06,27.06,0,0,0,5.31,12.13A18.86,18.86,0,0,1,387.57,529a11.42,11.42,0,0,0,.11,1.55A4.7,4.7,0,0,0,388,531.43Zm3.65,1a7,7,0,0,0-.94,0c-3.91.77-4.68.19-4.74-3.71a18.08,18.08,0,0,0-3.83-10.49A27,27,0,0,1,377,506.52c-.39-2.5-1-5-1.49-7.44-.31-1.5-.87-2.67-2.79-2.48s-3.15.9-3.28,2.93c-.25,4.09-.53,8.18-.68,12.27-.09,2.43.78,4.16,3.39,5.05,3.2,1.11,4.56,3.24,4,6.6a19.19,19.19,0,0,1-2.66,7.22c-6.29,9.63-8.48,19.58-3.06,30.29.58,1.15,1.94,2.55,3.07,2.67,8.72,1,9.42,1.2,11.19-7.24.95-4.5,1.51-9.1,2.76-13.52C388.44,539.33,390.2,536,391.69,532.43Z"/><path d="M343.73,807.2l-.15-2.18c-.17-2.39,1-3.39,3.4-2.89,3.2.67,4.73,2.92,5.38,5.87.4,1.78.49,3.64.78,6,.9-.93,1.64-1.57,2.23-2.32,2.31-2.93,4.61-2.85,6.87.12,2.09,2.75,3.42,5.64,2.26,9.11a8.52,8.52,0,0,1-5.84,5.9,16.27,16.27,0,0,0-8.94,5.88c-1.47,1.95-3.2,1.77-4.8-.06-3.57-4.07-7.21-8.07-10.85-12.07-1.18-1.31-2.24-3-3.74-3.71-2.65-1.25-3.88-3.16-5.1-5.75-1.32-2.8-3.88-5-5.83-7.54-1.09-1.41-2.67-2.62-2-4.86.14-.54-.68-1.29-.87-2a84.17,84.17,0,0,1-2.39-9.44c-.37-2.44,1-3.24,3.12-1.89,2.49,1.61,4.7,3.65,7.14,5.35a76.1,76.1,0,0,0,8.5,5.45,10,10,0,0,1,4.46,4,77.93,77.93,0,0,0,5.67,7.49Zm1.53-3.43a12.08,12.08,0,0,1,0,2.35c-.22,1-.41,2.33-1.06,2.67a3,3,0,0,1-2.66-.85c-2.05-2.32-3.83-4.88-5.78-7.29a7.48,7.48,0,0,0-2.17-2c-4.27-2.22-8.57-4.29-11.92-8-1.6-1.76-3.75-3-6.16-4.87A20.3,20.3,0,0,0,318,796.29a19.71,19.71,0,0,1,1.23,2.82,13.58,13.58,0,0,0,1.14,3.1c2.11,2.88,5.11,5.33,6.42,8.5,1.56,3.8,5.38,4.62,7.49,7.44.18.23.4.44.59.66,3.55,4,7.12,8,10.61,12,1.31,1.52,2.31,1.39,3.62,0a24,24,0,0,1,10.08-6.24c3.26-1.09,5.13-4.21,4-7.43-.74-2.15-2.42-4-3.8-5.86-.12-.17-1.26.18-1.72.55-1.15.92-2.09,2.13-3.29,3-1.49,1.05-2.53.58-2.89-1.24-.26-1.31-.24-2.67-.4-4C350.77,806.74,348.76,803.09,345.26,803.77Z"/><path d="M463.74,119.9c1.4.13,2.81.31,4.22.39a4.84,4.84,0,0,1,2.38,9,51,51,0,0,1-9.4,4.41c-3.4,1.2-3.7,1.11-3.79,4.73-.11,4.52-2.31,8.08-5,11.38a4.49,4.49,0,0,1-2.38,1.58c-2.52.47-3.14,2.42-4,4.35a8.15,8.15,0,0,1-1.75,3c-.79.66-2.29,1.25-3.11.93a4.23,4.23,0,0,1-2.4-2.71,6,6,0,0,0-2.94-4.63c-3.91-2.55-7.68-5.33-11.61-7.84-1.67-1.07-1.71-2.14-.85-3.66,2-3.5,3.73-7.13,5.92-10.47a8.82,8.82,0,0,1,4.21-3.41c5.77-1.92,11.64-3.63,17.55-5.1,4.21-1,8.56-1.57,12.85-2.33Zm-39.62,22.53c4.28,3,8.23,5.76,12.16,8.54,1.82,1.29,3.73,2.41,3.65,5.19,0,.76,1.3,1.55,2,2.33.63-.66,1.28-1.29,1.87-2a2.73,2.73,0,0,0,.3-.83c1-2.6,2-5.2,5.29-5.76a2.31,2.31,0,0,0,1.06-.75,15.53,15.53,0,0,0,5.09-11.24c0-3.66,1.1-4.53,4.57-5.63a39.27,39.27,0,0,0,7.83-3.13c1.66-1,3.7-2.58,3.08-4.91-.57-2.16-2.9-2-4.73-2.15a25.16,25.16,0,0,0-3.13-.07,96,96,0,0,0-25.41,4.69c-3.86,1.24-7.2,3.1-8.93,7.23A83.07,83.07,0,0,1,424.12,142.43Z"/><path d="M65.5,712.93c2.34.4,4.7.72,7,1.23a4.05,4.05,0,0,1,3,5.28c-1,3-1.8,6-4.5,8a3.1,3.1,0,0,0-.67,2.18c-.06,4.47.1,8.94-.07,13.4a7.37,7.37,0,0,1-4.9,7,9.46,9.46,0,0,0-3.3,3.16c-2.64,3.45-4.72,3.62-7.57.44-.9-1-1.78-1.81-3.27-1.08a1.21,1.21,0,0,1-1.12-.36,1.28,1.28,0,0,1,.08-1.17c1.85-2.57,2.06-5.55,2.17-8.52.21-6,.32-12.08.49-18.11.09-3.59.5-7.11,4-9.15a19.4,19.4,0,0,1,4.81-1.88,19,19,0,0,1,3.79-.27ZM52.73,750.12c1.43,1.24,2.57,2.1,3.54,3.11,1.65,1.71,2.48,1.73,3.91-.12.86-1.12,1.65-2.31,2.61-3.34.68-.72,1.53-1.65,2.4-1.77,2.35-.32,3.18-1.84,3.42-3.78a55.1,55.1,0,0,0,.35-6.67c0-2.91-.16-5.81-.11-8.71,0-.83.31-2.12.87-2.4,3-1.46,3.31-4.37,4.32-7,.71-1.83-.05-2.77-1.72-3.43a16.56,16.56,0,0,0-12.23-.45c-3.66,1.34-5.17,3-5.52,6.92C53.73,731.86,55.2,741.34,52.73,750.12Z"/><path d="M58.91,661.1c-.32,3.55-.6,8.16-1.18,12.72-.43,3.3-2.47,4.14-5.48,2.68-3.6-1.75-5.28-4.71-5.92-8.55-.21-1.26-1.13-2.4-1.7-3.62A17,17,0,0,1,43,660.51q-1.26-6.68-2.14-13.43c-.42-3.12,1.07-5.64,3.2-7.74a2.23,2.23,0,0,1,2.09.11c2.86,2.12,5.61,4.37,8.41,6.57a2.71,2.71,0,0,0,1.05.68c1.92.3,2.61,1.65,2.74,3.31C58.56,653.34,58.68,656.69,58.91,661.1Zm-1.5-.51-.54,0c0-3.28.06-6.55,0-9.82,0-.78-.49-2.1-1-2.22-3.48-.86-5.53-3.64-8-5.75-2.94-2.47-4.36-2.09-5.25,1.75a7.62,7.62,0,0,0-.11,2.65c.59,4.27,1.19,8.55,1.95,12.79a14.24,14.24,0,0,0,1.5,3.35c.65,1.35,1.81,2.67,1.89,4.06.21,3.56,2.38,5.67,4.89,7.53,2,1.51,3.15,1.06,3.49-1.46C56.74,669.18,57,664.88,57.41,660.59Z"/><path d="M525.78,308.51c-.84-.51-1.68-1-2.52-1.54a21.33,21.33,0,0,1-8-9.09c-1.71-3.32-.57-6,3.21-7,4.1-1.06,8.29-1.74,12.44-2.58a24.66,24.66,0,0,1,3.95-.72c3-.11,4.17,1.77,2.69,4.31a26.51,26.51,0,0,1-3.53,4.8,19.28,19.28,0,0,0-4.83,8.14A5.06,5.06,0,0,1,525.78,308.51ZM537,289.86l-.72-.79c-1.08.12-2.18.18-3.24.38q-5.25,1-10.49,2.12a30.4,30.4,0,0,0-4.73,1.22,2.46,2.46,0,0,0-1.57,3.58,23.4,23.4,0,0,0,8.06,9.57c1.5,1,2.81.63,3.27-1.19,1-4,3.36-7,6.1-9.93A34,34,0,0,0,537,289.86Z"/><path d="M469.66,534.28c0,3.6-1.71,4.93-4.55,3.6-5.87-2.76-10.68-6.76-13.13-12.92-.58-1.46-.69-3.87.14-5,1.3-1.68,3.34-.33,4.79.63a113.06,113.06,0,0,1,9.2,6.59A10.92,10.92,0,0,1,469.66,534.28Zm-1.63-.14c-.29-2.77-2.09-5.28-4.84-7.18s-5.47-3.79-8.25-5.62c-.45-.3-1.39-.54-1.61-.31a2.32,2.32,0,0,0-.47,1.73,7.8,7.8,0,0,0,.72,2.1c2.33,5.64,7.16,8.72,12.12,11.58C467.47,537.46,468.06,536.91,468,534.14Z"/><path d="M331.76,569.07a37.86,37.86,0,0,1-5.62-1.89,3.18,3.18,0,0,1-1.48-2.59c.19-.91,1.41-2.26,2.2-2.28,4.08-.1,6-3.17,8.47-5.56a8.43,8.43,0,0,1,1.44-1.3c2.63-1.55,4.12-.87,4.32,2.13C341.54,564.43,338.26,568.82,331.76,569.07Zm-6.08-4.22c3.35,2.84,8.36,3.17,11.13,1.06,2.28-1.75,3.47-6.81,2.13-10-1.85,1.7-3.59,3.37-5.4,4.94s-3.44,3.24-6,3.29A6.91,6.91,0,0,0,325.68,564.85Z"/><path d="M353.32,788.46c-2.65,4.59-4.71,5.09-9.59,2.37-1.3-.72-2.75-1.19-4-2-2.85-1.87-3.09-4.89-.21-6.69,2.45-1.53,5.39-2.28,8.11-3.38,1.51.65,2.77.7,2.67,2.62m-2.26.07,0-1c-2.4.87-5,1.42-7.15,2.67-2.69,1.53-2.47,3.59.27,4.92a40.47,40.47,0,0,0,4.55,1.78c3.59,1.22,4.7.75,6.57-2.47.6-1,.45-1.61-.57-2.36A36.53,36.53,0,0,1,348.06,781.46Z"/><path d="M492.54,797.68c.2-6.19,7.53-10.2,12.83-7a3.44,3.44,0,0,1,1.36,5.11,16,16,0,0,1-7.1,6.18C496.47,803.43,492.43,801,492.54,797.68Zm7.76-6.11a6.76,6.76,0,0,0-6.29,6.08,2.45,2.45,0,0,0,.6,1.58c1.7,1.94,3.35,2.23,5.48.68a33.84,33.84,0,0,0,4.91-4.43c1.48-1.62,1-2.78-1.18-3.32C502.66,791.88,501.47,791.76,500.3,791.57Z"/><path d="M471.19,726.51a3.1,3.1,0,0,1,0,1.1c-.48,1.07-1,2.94-1.6,3-1.3.09-3.17-.36-3.91-1.3a24.34,24.34,0,0,1-4.94-11.55c-.15-1,.26-2.93.79-3.08a5.77,5.77,0,0,1,3.94.4C470,717.47,471.23,721.71,471.19,726.51Zm-2.37,3c1.93-3.8.27-10.38-3.07-12.5a6.68,6.68,0,0,0-2-.89c-1.25-.31-2,.23-1.56,1.54C463.58,722,464.36,726.68,468.82,729.52Z"/><path d="M520.5,784.53h1.12c6.42-.22,7.08,4,5.81,8.2a5.72,5.72,0,0,1-3,3.14,13.15,13.15,0,0,1-5.46.64c-2.94-.17-4-1.28-4.76-4.13C512.53,786.05,513.76,784.53,520.5,784.53Zm.28,1.61c-6.14-.2-6.92.78-4.8,6.57a4,4,0,0,0,2.56,2.26,11.83,11.83,0,0,0,5.41-.62,4.33,4.33,0,0,0,2.21-2.9c.71-4.13-.26-5.14-4.49-5.31Z"/><path d="M69,686.59c3.43-.07,6.78,2.5,5.48,6.77-1.62,5.3-2.8,6.21-8.06,4.52-3.11-1-4.55-2.89-4-5.53C63.09,689.34,65.23,686.45,69,686.59Zm0,2c-.26,0-.78,0-1.3.07A5.08,5.08,0,0,0,63.75,693c0,2.14,1.4,2.91,3.21,3.27a15.73,15.73,0,0,1,2.4.51c2,.72,2.86-.27,3.2-2.08.08-.44.19-.87.3-1.3C73.69,689.88,72.84,688.76,69,688.64Z"/><path d="M360.49,513.86c-.08,1.53.22,3.5-2,4.22s-6.45-.74-7.09-2.65a35.76,35.76,0,0,1-1.57-7.53c-.19-1.82,1-2.79,2.93-2.92C358.29,504.59,360.46,507,360.49,513.86Zm-7.06-7.38c-1.81-.07-2.33.18-2.11,1.94a21.7,21.7,0,0,0,1.74,6.29c.87,1.89,3,2.3,4.81,1.86s1-2.3,1-3.63a13.77,13.77,0,0,0-.15-1.55C358.32,507.34,357.54,506.62,353.43,506.48Z"/><path d="M254.83,689c.57-4.22,1.79-5.65,5.42-6,1.19-.12,2.09,0,1.81,1.66a3.09,3.09,0,0,0,.62,1.8,7.46,7.46,0,0,1-.13,8.41,5.7,5.7,0,0,1-3.72,1.86c-1.55.21-2.55-1-2.89-2.55C255.56,692.49,255.2,690.76,254.83,689Zm5-5c-1.22,1.16-2.89,2-2.94,3a25.6,25.6,0,0,0,.82,7.15,1.73,1.73,0,0,0,3,.58,5.81,5.81,0,0,0,1-6.36Z"/><path d="M434.48,679.41c1.86,3.91,1.82,7.11.58,10.22-.83,2.08-5,3.17-6.88,1.89a2.45,2.45,0,0,1-.6-2.32C429.65,686,431.92,683,434.48,679.41Zm-.64,3c-1.89,2.72-3.52,5.07-5.24,7.53C433.29,691.26,435.29,688.45,433.84,682.36Z"/><path d="M381.42,807.08c-.38,1.42-.65,2.88-1.15,4.25-.71,1.95-2.34,2.47-3.76,1.1-1.72-1.66-3-3.62-2.66-6.27.35-2.43,2-4.21,4.14-4.16,1.84,0,3,1.52,3.15,4.13l.06.89Zm-1.25.26c-.51-2.78-1-3.71-2.34-3.72-1.5,0-2.55,1.48-2.54,3.56,0,1.61,2,4.34,2.71,3.78C379,810.09,379.48,808.57,380.17,807.34Z"/><path d="M329.13,772.91c-.65.47-1.55,1.63-2.6,1.79-4,.64-8-4.81-6.4-8.55.91-2.15,2.49-2.69,4.45-1.36A10,10,0,0,1,329.13,772.91Zm-.87-1c-1.55-2.25-2.67-4-4-5.66a1.85,1.85,0,0,0-1.75-.45,3.12,3.12,0,0,0-1.28,1.91c-.35,2.25,2.33,5.46,4.59,5.51C326.46,773.22,327.07,772.57,328.26,771.9Z"/><path d="M622.55,762.52c1.54-.25,2.27.67,2.38,2.11a8.3,8.3,0,0,1-3.12,7.23c-2.11,1.76-4,.81-5-1.82C615.59,766.86,619.19,762.07,622.55,762.52Zm.8,1.9c-2.08.09-4.13.26-4.9,2.33-.38,1,.12,2.48.51,3.63a2.2,2.2,0,0,0,2,.26A7.14,7.14,0,0,0,623.35,764.42Z"/><path d="M309.34,771c-3.36-1.47-4.44-4.14-4.36-7.42.08-2.93,2.22-4.07,4.77-2.61C314.1,763.41,314,767.86,309.34,771Zm-3.09-7.1c.43,1.29.77,2.5,1.23,3.66a1.76,1.76,0,0,0,2.66,1.13c1.22-.58,2-1.57,1.4-2.87a11.59,11.59,0,0,0-2.29-3.2,2.19,2.19,0,0,0-1.92-.56C306.82,762.23,306.62,763.16,306.25,763.85Z"/><path d="M518.11,811.42c-.14,2.47-3,4.79-5.67,4.62a3.65,3.65,0,0,1-3.2-3.91,5,5,0,0,1,5.32-4.35C516.93,807.88,518.24,809.22,518.11,811.42Zm-2.88-2.16c-2.7-.07-4.3,1.36-4.36,3.12a1.87,1.87,0,0,0,2,2.12c1.55.09,3.89-1.82,3.68-3.22C516.44,810.42,515.53,809.68,515.23,809.26Z"/><path d="M191.8,337.43c2.6-3.92,6.33-3.84,10.13-2.84.93.24,1.55,1.64,2.32,2.5a12.11,12.11,0,0,1-2.54,1.77c-.78.29-1.79-.07-2.65.09a15.58,15.58,0,0,0-4.45,1.14c-3.19,1.68-4,1.64-6.05-1.28-2.13-3.08-3.56-6.5-2.73-10.24.39-1.73,1.81-3.26,2.92-4.76a1.86,1.86,0,0,1,1.77-.36,2.07,2.07,0,0,1,.7,1.68c-.11,2.15-.49,4.29-.54,6.44-.05,1.87.21,3.74.34,5.61ZM189,336.18c.16-3.44.34-7.06.52-10.79C186.4,327.85,186.3,331.89,189,336.18Zm13.6,1.28-.15-1.15c-2.1,0-4.29-.37-6.27.11s-3.55,1.82-5.35,2.8c.12.1.53.57.64.51A17.06,17.06,0,0,1,202.58,337.46Z"/><path d="M237.38,776.69c5-.71,9.36-.17,13.22,2.84,2.75,2.15,3.06,4.73.78,6.51-1.35,1.06-3.43.65-5.6-1.24-2.45-2.13-4.86-4.31-7.25-6.51A10.35,10.35,0,0,1,237.38,776.69Zm4.05,2c2.33,1.95,4.3,3.42,6,5.14,1,1,2,1.9,3.1.69a2.28,2.28,0,0,0-.4-3.67A11.69,11.69,0,0,0,241.43,778.73Z"/><path d="M169.31,239.27c0,2.45-1.64,4.65-3.55,4.72-2.26.08-5.17-2.89-5.21-5.3,0-2.15,1.71-3.76,4.11-3.79A4.41,4.41,0,0,1,169.31,239.27Zm-1.06.38c-.48-2-1.83-3.29-3.56-3.22-1.5.06-2.6.73-2.61,2.4,0,1.4,2.38,3.89,3.5,3.41S167.37,240.54,168.25,239.65Z"/><path d="M100.86,328.15a20.16,20.16,0,0,1-3.51,10.72c-1.46,2.29-3.5,2.27-4.41-.31a14.37,14.37,0,0,1-.63-6.73,22.79,22.79,0,0,1,2.59-7.23c.53-1,2.47-2.12,3.34-1.84,1.07.35,1.79,2,2.44,3.27A5.33,5.33,0,0,1,100.86,328.15Zm-6,10.91.83-.18c1.93-3.67,3.86-7.37,3.54-11.72a10.52,10.52,0,0,0-1.14-3c-.88.68-2.3,1.21-2.54,2.07a62.53,62.53,0,0,0-1.9,9.49C93.56,336.8,94.46,338,94.9,339.06Z"/><path d="M562,837l-.83,1.76c-.66-.58-1.55-1-2-1.75-2.28-4-4.51-8-6.6-12.06-.39-.76-.1-1.87-.12-2.81.92.3,2.08.35,2.74.95A19.09,19.09,0,0,1,562,837Zm-7.39-12.55-.53.29q2.75,4.38,5.48,8.76C559.32,829.63,556.74,827.16,554.64,824.4Z"/><path d="M573.3,863.66c-.1.88-.17,2.15-.41,3.38-.58,3.07-2.06,4-5.08,3.23a30.14,30.14,0,0,1-4.6-1.68c-1.54-.69-2.11-2-1.22-3.47a53.7,53.7,0,0,1,5.08-7.27,4.71,4.71,0,0,1,3.84-1.45c.93.24,1.63,2.08,2.06,3.33A16.7,16.7,0,0,1,573.3,863.66Zm-10.52,2.72c2.23,1,4,1.89,5.93,2.58,1.46.52,2.6-.07,2.66-1.72a63.1,63.1,0,0,0,0-7.78c-.17-2-1.51-2.48-2.8-1C566.55,860.87,564.87,863.48,562.78,866.38Z"/><path d="M562.57,838.64a38.66,38.66,0,0,1,3,4.15c.27.5-.23,1.41-.37,2.13-.66-.22-1.6-.24-1.92-.7C562.24,842.75,561.1,841.18,562.57,838.64Z"/><path d="M600.64,742.44A26.75,26.75,0,0,1,597,740.1c-1.21-1.05-.76-3.31.83-4.44s2.63-.62,3.4,1a35,35,0,0,1,1.79,3.57C603.48,741.67,602.89,742.59,600.64,742.44Zm.47-1.49.46-.41c-.66-1.2-1.33-2.4-2.15-3.87l-2,2.08Z"/></g></g></svg>